<?xml version="1.0" encoding="UTF-8" standalone="no"?>
<svg
   xmlns:dc="http://purl.org/dc/elements/1.1/"
   xmlns:cc="http://creativecommons.org/ns#"
   xmlns:rdf="http://www.w3.org/1999/02/22-rdf-syntax-ns#"
   xmlns:svg="http://www.w3.org/2000/svg"
   xmlns="http://www.w3.org/2000/svg"
   viewBox="0 0 286.09201 344.51999"
   height="344.51999"
   width="286.09201"
   xml:space="preserve"
   id="svg2"
   version="1.1"><metadata
     id="metadata8"><rdf:RDF><cc:Work
         rdf:about=""><dc:format>image/svg+xml</dc:format><dc:type
           rdf:resource="http://purl.org/dc/dcmitype/StillImage" /></cc:Work></rdf:RDF></metadata><defs
     id="defs6"><clipPath
       id="clipPath18"
       clipPathUnits="userSpaceOnUse"><path
         id="path16"
         d="M 0,258.39 H 214.569 V 0 H 0 Z" /></clipPath></defs><g
     transform="matrix(1.3333333,0,0,-1.3333333,0,344.52)"
     id="g10"><g
       id="g12"><g
         clip-path="url(#clipPath18)"
         id="g14"><g
           transform="translate(64.8976,73.3719)"
           id="g20"><path
             id="path22"
             style="fill:#9e824d;fill-opacity:1;fill-rule:nonzero;stroke:none"
             d="m 0,0 c 1.099,-0.331 1.93,-0.553 2.741,-0.831 4.674,-1.603 9.43,-2.919 14.244,-4.013 4.388,-0.997 8.797,-1.909 13.262,-2.51 3.42,-0.461 6.835,-0.972 10.265,-1.345 2.45,-0.268 4.926,-0.281 7.381,-0.519 5.421,-0.522 10.855,-0.374 16.283,-0.284 3.078,0.051 6.153,0.374 9.228,0.603 1.906,0.141 3.815,0.275 5.709,0.519 2.689,0.348 5.374,0.738 8.044,1.21 4.372,0.774 8.717,1.692 12.995,2.896 2.078,0.584 4.135,1.244 6.204,1.858 0.46,0.137 0.934,0.227 1.538,0.371 0.03,-0.421 0.127,-0.726 0.059,-0.987 -0.968,-3.754 -1.916,-7.513 -2.952,-11.248 -1.286,-4.632 -2.647,-9.242 -3.98,-13.862 -1.076,-3.728 -2.23,-7.437 -3.209,-11.191 -0.471,-1.808 -1.444,-3.143 -2.994,-4.031 -1.492,-0.855 -3.039,-1.65 -4.637,-2.281 -3.215,-1.267 -6.581,-2.03 -9.962,-2.73 -3.745,-0.776 -7.531,-1.291 -11.321,-1.76 -2.14,-0.265 -4.3,-0.388 -6.455,-0.51 -2.832,-0.158 -5.671,-0.396 -8.502,-0.336 -3.82,0.08 -7.641,0.328 -11.449,0.659 -3.497,0.304 -6.99,0.725 -10.458,1.266 -2.305,0.36 -4.57,0.993 -6.842,1.552 -3.054,0.753 -6.08,1.608 -8.913,3.014 -0.882,0.437 -1.738,0.935 -2.568,1.466 -1.352,0.864 -2.212,2.078 -2.644,3.652 -1.123,4.1 -2.303,8.184 -3.475,12.271 C 5.621,-20.225 3.638,-13.353 1.663,-6.479 1.136,-4.643 0.616,-2.805 0.104,-0.966 0.042,-0.745 0.051,-0.506 0,0" /></g><g
           transform="translate(53.5089,109.2801)"
           id="g24"><path
             id="path26"
             style="fill:#9e824d;fill-opacity:1;fill-rule:nonzero;stroke:none"
             d="m 0,0 c 1.719,-0.78 3.15,-1.504 4.635,-2.087 3.112,-1.222 6.367,-1.939 9.642,-2.563 4.422,-0.844 8.871,-1.489 13.35,-1.963 4.108,-0.436 8.215,-0.866 12.342,-1.085 0.982,-0.052 1.122,-0.225 1.229,-1.223 0.385,-3.573 -0.087,-7.001 -1.621,-10.278 -0.574,-1.227 -1.071,-2.496 -1.514,-3.777 -0.281,-0.808 -0.499,-1.665 -0.566,-2.514 -0.175,-2.194 1.043,-3.969 3.106,-4.733 0.781,-0.289 1.548,-0.325 2.355,-0.097 1.643,0.463 3.029,1.365 4.315,2.443 1.755,1.471 3.325,3.121 4.746,4.919 1.915,2.424 3.666,4.955 5.185,7.647 0.977,1.73 1.733,3.54 2.275,5.448 0.396,1.398 0.408,1.402 1.908,1.41 2.216,0.011 4.43,-0.192 6.647,-0.031 0.295,0.021 0.596,-0.051 0.978,-0.088 0.174,-1.045 -0.064,-1.996 -0.199,-2.948 -0.247,-1.722 -0.226,-3.428 0.045,-5.155 0.421,-2.675 1.588,-4.899 3.659,-6.651 1.916,-1.621 3.339,-3.615 4.427,-5.862 0.598,-1.235 0.95,-2.54 1.106,-3.897 0.018,-0.167 -0.07,-0.347 -0.133,-0.633 -0.533,-0.05 -1.072,-0.142 -1.611,-0.144 -6.17,-0.029 -12.342,-0.099 -18.512,-0.04 -4.071,0.038 -8.145,0.197 -12.21,0.424 -6.282,0.351 -12.561,0.788 -18.812,1.539 -5.328,0.64 -10.636,1.421 -15.867,2.627 -2.217,0.509 -4.401,1.196 -6.552,1.938 -1.092,0.376 -2.109,1.006 -3.106,1.607 -0.904,0.545 -1.365,1.401 -1.323,2.489 0.013,0.308 -0.003,0.617 -0.003,0.925 -0.001,6.786 -0.002,13.571 0.003,20.356 0,0.602 0.044,1.205 0.076,1.997" /></g><g
           transform="translate(141.5499,76.2499)"
           id="g28"><path
             id="path30"
             style="fill:#9e824d;fill-opacity:1;fill-rule:nonzero;stroke:none"
             d="m 0,0 c -0.104,1.129 -0.281,2.229 -0.275,3.327 0.004,0.655 0.221,1.34 0.472,1.958 0.371,0.91 0.793,1.815 1.31,2.649 1.443,2.332 1.517,4.787 0.657,7.285 -0.418,1.214 -1.035,2.368 -1.651,3.502 -0.558,1.027 -1.281,1.965 -1.844,2.989 -0.352,0.637 -0.589,1.349 -0.786,2.052 -0.089,0.317 0.044,0.697 0.07,0.989 0.217,0.096 0.324,0.18 0.438,0.188 1.967,0.142 3.937,0.259 5.903,0.412 2.642,0.205 5.281,0.427 7.921,0.659 1.596,0.139 3.191,0.29 4.782,0.47 2.997,0.341 5.997,0.634 8.942,1.361 2.27,0.559 4.601,0.866 6.881,1.388 3.127,0.713 6.226,1.546 9.109,3.007 0.709,0.36 1.394,0.763 2.056,1.127 0.541,-0.201 0.402,-0.628 0.403,-0.964 C 44.4,29.008 44.396,25.617 44.397,22.226 44.398,18.095 44.348,13.962 44.432,9.833 44.457,8.551 43.967,7.722 42.993,7.048 41.35,5.909 39.483,5.274 37.604,4.681 33.778,3.471 29.854,2.674 25.896,2.09 21.385,1.425 16.861,0.834 12.329,0.338 9.021,-0.024 5.689,-0.181 2.367,-0.425 1.625,-0.479 0.889,-0.458 0,0" /></g><g
           transform="translate(148.8507,105.8915)"
           id="g32"><path
             id="path34"
             style="fill:#9e824d;fill-opacity:1;fill-rule:nonzero;stroke:none"
             d="M 0,0 C 0.151,0.032 0.375,0.018 0.5,0.121 0.72,0.305 0.961,0.536 1.035,0.793 1.083,0.956 0.875,1.228 0.726,1.403 0.615,1.534 0.424,1.629 0.252,1.671 -0.675,1.896 -1.388,2.49 -2.149,3.008 -2.86,3.491 -3.564,3.999 -4.328,4.385 -4.92,4.685 -5.587,4.886 -6.242,4.999 -7.064,5.14 -7.834,4.895 -8.443,4.292 -8.915,3.825 -9.099,3.268 -8.873,2.609 -8.72,2.164 -8.206,1.968 -7.844,2.234 c 0.097,0.073 0.179,0.171 0.25,0.271 0.45,0.632 1.04,0.582 1.642,0.303 C -5.453,2.575 -4.969,2.305 -4.501,2.015 -3.874,1.627 -3.275,1.191 -2.65,0.799 -1.853,0.299 -0.972,0.048 0,0 M 2.979,3.513 C 3.624,3.056 4.327,2.658 4.906,2.127 6.772,0.413 8.723,0.012 10.922,1.497 c 0.885,0.598 1.849,0.607 2.805,0.099 0.27,-0.144 0.537,-0.35 0.825,-0.39 0.269,-0.038 0.606,0.039 0.839,0.185 0.276,0.172 0.237,0.674 -0.002,1.002 C 14.427,3.714 12.55,4.336 10.937,3.824 10.414,3.658 9.923,3.388 9.425,3.15 8.515,2.717 7.641,2.766 6.799,3.322 6.234,3.695 5.675,4.077 5.104,4.441 4.475,4.844 3.804,5.138 3.036,5.145 2.103,5.153 1.35,4.801 0.879,3.983 0.78,3.811 0.794,3.471 0.904,3.308 1.016,3.142 1.333,2.987 1.521,3.024 1.988,3.117 2.435,3.321 2.979,3.513 M 26.216,5.405 C 28.623,5.083 30.754,4.328 32.84,3.513 32.867,3.002 32.529,2.975 32.26,2.874 29.132,1.7 25.891,0.947 22.619,0.321 12.844,-1.551 2.965,-2.537 -6.966,-3.061 -7.629,-3.096 -8.312,-3.235 -8.9,-2.948 c -0.44,0.562 -0.295,1.137 -0.246,1.67 0.212,2.265 -0.613,4.079 -2.246,5.617 -1.312,1.236 -2.775,2.254 -4.298,3.196 -0.893,0.551 -1.807,1.067 -2.695,1.624 -0.286,0.18 -0.521,0.441 -1.025,0.876 0.661,0.048 1.003,0.109 1.341,0.091 C -11.599,9.79 -5.125,9.503 1.339,9.076 4.721,8.853 8.084,8.365 11.46,8.032 c 0.695,-0.068 1.342,-0.235 1.923,-0.591 0.946,-0.578 1.881,-1.178 2.784,-1.82 1.106,-0.786 2.152,-1.658 3.27,-2.426 0.708,-0.486 1.471,-0.913 2.258,-1.255 1.459,-0.634 3.515,0.054 4.032,1.858 0.133,0.47 0.283,0.934 0.489,1.607" /></g><g
           transform="translate(103.504,115.6444)"
           id="g36"><path
             id="path38"
             style="fill:#9e824d;fill-opacity:1;fill-rule:nonzero;stroke:none"
             d="M 0,0 C -1.116,-1.341 -2.515,-1.901 -3.619,-2.825 -4.7,-3.73 -5.742,-4.684 -6.932,-5.729 c -0.127,0 -0.434,-0.026 -0.736,0.004 -1.107,0.111 -2.092,-0.156 -2.869,-0.971 -0.585,-0.613 -1.193,-0.525 -1.837,-0.158 -0.481,0.276 -0.935,0.605 -1.432,0.843 -0.549,0.264 -1.119,0.548 -1.709,0.653 -1.714,0.303 -2.57,-0.152 -3.489,-1.704 -0.092,-0.155 -0.214,-0.292 -0.301,-0.41 -0.6,-0.275 -1.105,-0.045 -1.642,0.112 -1.003,0.291 -2.015,0.597 -3.045,0.736 -0.776,0.104 -1.609,0.062 -2.375,-0.104 -1.082,-0.235 -1.449,-1.149 -0.995,-2.139 0.025,-0.056 0.045,-0.115 0.078,-0.167 0.304,-0.469 0.614,-1.014 1.251,-0.943 0.754,0.084 0.682,0.745 0.71,1.295 0.003,0.052 0.053,0.101 0.137,0.253 0.942,0.21 1.871,-0.096 2.792,-0.43 0.695,-0.253 1.367,-0.579 2.074,-0.784 1.393,-0.402 2.365,-0.008 3.166,1.205 0.101,0.154 0.164,0.334 0.267,0.485 0.377,0.553 0.822,0.694 1.428,0.41 0.39,-0.183 0.744,-0.436 1.121,-0.646 0.484,-0.272 0.952,-0.586 1.464,-0.786 1.237,-0.482 2.406,-0.412 3.441,0.542 0.388,0.357 0.686,0.905 1.342,0.823 0.076,-0.113 0.209,-0.221 0.194,-0.297 -0.31,-1.442 -0.637,-2.879 -0.952,-4.274 -0.495,-0.473 -1.069,-0.407 -1.614,-0.372 -1.724,0.112 -3.45,0.199 -5.166,0.388 -5.209,0.571 -10.429,1.061 -15.6,1.933 -4.499,0.759 -8.98,1.597 -13.32,3.045 -0.504,0.167 -0.984,0.407 -1.553,0.646 0.577,0.65 1.269,0.75 1.883,0.956 3.042,1.018 6.156,1.776 9.32,2.292 4.012,0.655 8.025,1.341 12.064,1.786 5.145,0.567 10.297,1.112 15.478,1.3 1.971,0.071 3.94,0.222 5.911,0.315 C -1.047,0.127 -0.643,0.052 0,0" /></g><g
           transform="translate(55.3507,109.8046)"
           id="g40"><path
             id="path42"
             style="fill:#9e824d;fill-opacity:1;fill-rule:nonzero;stroke:none"
             d="m 0,0 c -0.606,0.511 -1.177,0.892 -1.618,1.387 -0.631,0.708 -0.643,1.47 -0.022,2.176 0.44,0.501 0.963,0.994 1.551,1.286 1.376,0.683 2.781,1.334 4.231,1.838 3.499,1.216 7.12,1.985 10.77,2.583 3.281,0.537 6.574,1.03 9.876,1.42 3.181,0.375 6.38,0.61 9.573,0.877 2.703,0.227 5.408,0.461 8.116,0.603 3.695,0.194 7.395,0.306 11.093,0.442 0.229,0.009 0.461,-0.071 0.835,-0.134 -0.135,-0.362 -0.18,-0.67 -0.344,-0.89 C 53.216,10.453 52.354,9.331 51.471,8.227 51.024,7.668 50.417,7.441 49.687,7.416 46.543,7.306 43.398,7.194 40.259,7.012 37.613,6.858 34.974,6.614 32.332,6.392 30.797,6.263 29.266,6.087 27.73,5.95 21.828,5.424 15.978,4.55 10.19,3.281 6.757,2.529 3.369,1.607 0,0" /></g><g
           transform="translate(104.8497,144.4666)"
           id="g44"><path
             id="path46"
             style="fill:#edca55;fill-opacity:1;fill-rule:nonzero;stroke:none"
             d="m 0,0 c -0.687,0.524 -0.829,1.202 -1.06,1.807 -0.813,2.132 -1.35,4.344 -1.848,6.566 -0.255,1.138 -0.575,2.264 -0.767,3.412 -0.252,1.515 -0.436,3.043 -0.582,4.571 -0.038,0.399 0.095,0.867 0.29,1.227 2.153,3.951 4.56,7.739 7.313,11.302 0.134,0.175 0.368,0.273 0.633,0.462 0.356,-1.116 0.46,-2.165 0.473,-3.194 C 4.484,23.593 5.174,21.17 5.868,18.747 6.29,17.275 6.798,15.828 7.292,14.295 6.93,14.012 6.623,13.723 6.27,13.509 5.797,13.224 5.283,13.005 4.796,12.743 3.599,12.098 2.749,11.159 2.475,9.799 2.208,8.476 1.978,7.143 1.769,5.809 1.52,4.225 1.179,2.665 0.628,1.159 0.49,0.782 0.244,0.443 0,0" /></g><g
           transform="translate(91.6505,164.5638)"
           id="g48"><path
             id="path50"
             style="fill:#edca55;fill-opacity:1;fill-rule:nonzero;stroke:none"
             d="m 0,0 c -0.434,0.752 -0.437,1.496 -0.505,2.22 -0.221,2.396 -0.434,4.792 -0.648,7.188 -0.039,0.43 -0.059,0.862 -0.098,1.292 -0.058,0.645 0.114,1.194 0.526,1.713 3.582,4.514 7.574,8.622 12.075,12.228 0.14,0.113 0.318,0.182 0.484,0.258 0.047,0.021 0.115,-0.004 0.184,-0.009 0.356,-0.184 0.255,-0.522 0.226,-0.808 C 11.882,20.647 11.509,17.213 11.136,13.779 11.103,13.473 11.06,13.167 11.004,12.864 10.894,12.264 10.571,11.858 9.945,11.728 9.584,11.653 9.225,11.562 8.869,11.461 7.491,11.073 6.437,10.24 5.768,8.994 5.274,8.075 4.91,7.086 4.494,6.126 4.102,5.221 3.788,4.274 3.311,3.417 2.529,2.015 1.537,0.779 0,0" /></g><g
           transform="translate(184.2794,217.951)"
           id="g52"><path
             id="path54"
             style="fill:#edca55;fill-opacity:1;fill-rule:nonzero;stroke:none"
             d="m 0,0 c -1.646,0.682 -2.463,1.883 -3.058,3.252 -0.515,1.186 -0.889,2.434 -1.42,3.613 -0.579,1.288 -1.202,2.565 -1.919,3.78 -0.994,1.683 -2.431,2.953 -4.173,3.826 -1.786,0.896 -3.35,2.075 -4.763,3.467 -1.349,1.329 -2.672,2.685 -4.236,4.259 2.099,-0.279 3.811,-0.716 5.474,-1.337 4.704,-1.756 9.042,-4.216 13.279,-6.878 C -0.064,13.51 0.297,12.943 0.28,12.034 0.21,8.274 0.188,4.514 0.143,0.754 0.14,0.574 0.076,0.395 0,0" /></g><g
           transform="translate(167.128,122.5096)"
           id="g56"><path
             id="path58"
             style="fill:#edca55;fill-opacity:1;fill-rule:nonzero;stroke:none"
             d="m 0,0 c -0.945,-0.394 -1.687,-0.295 -2.414,-0.274 -0.984,0.027 -1.968,0.143 -2.95,0.134 -0.853,-0.008 -1.537,0.271 -2.193,0.8 -3.553,2.871 -7.341,5.417 -11.161,7.915 -1.182,0.774 -2.442,1.43 -3.678,2.119 -0.642,0.357 -1.294,0.688 -1.958,1.29 0.275,0.171 0.441,0.341 0.634,0.382 0.603,0.127 1.214,0.221 1.825,0.299 1.192,0.149 2.336,0.003 3.413,-0.568 0.435,-0.231 0.905,-0.401 1.332,-0.645 1.804,-1.035 3.762,-1.513 5.819,-1.651 0.739,-0.05 1.477,-0.119 2.215,-0.172 C -5.845,9.395 -3.381,7.915 -1.894,4.94 -1.646,4.445 -1.416,3.938 -1.223,3.419 -0.815,2.33 -0.437,1.229 0,0" /></g><g
           transform="translate(133.1524,96.1366)"
           id="g60"><path
             id="path62"
             style="fill:#edca55;fill-opacity:1;fill-rule:nonzero;stroke:none"
             d="m 0,0 c 0.156,-0.434 0.339,-0.804 0.422,-1.195 1.022,-4.827 1.914,-9.675 2.374,-14.596 0.2,-2.146 0.555,-4.277 0.78,-6.422 0.096,-0.902 0.195,-1.83 -0.076,-2.8 -1.413,-0.111 -2.485,0.386 -3.049,1.621 -0.43,0.944 -0.81,1.969 -0.917,2.99 -0.445,4.274 -2.496,7.677 -5.488,10.615 -0.257,0.252 -0.489,0.526 -0.71,0.766 C -6.123,-7.891 -1.074,-1.05 0,0" /></g><g
           transform="translate(150.0743,116.576)"
           id="g64"><path
             id="path66"
             style="fill:#9e824d;fill-opacity:1;fill-rule:nonzero;stroke:none"
             d="m 0,0 c -0.584,-0.219 -1.192,-0.116 -1.779,-0.085 -2.709,0.142 -5.416,0.329 -8.126,0.457 -3.204,0.151 -6.409,0.257 -9.615,0.386 -0.8,0.032 -1.601,0.114 -2.402,0.11 -0.9,-0.003 -1.518,0.395 -1.963,1.148 -0.219,0.371 -0.503,0.704 -0.718,1.077 -0.953,1.654 -2.318,2.508 -4.277,2.272 -0.165,-0.02 -0.346,0.057 -0.514,0.105 -0.042,0.011 -0.064,0.088 -0.157,0.228 0.251,0.07 0.469,0.184 0.686,0.181 4.44,-0.058 8.881,-0.123 13.321,-0.201 1.172,-0.021 2.343,-0.075 3.514,-0.136 2.586,-0.134 5.171,-0.286 7.758,-0.42 C -3.728,5.094 -3.326,4.868 -3.1,4.371 -2.396,2.831 -1.369,1.539 -0.117,0.412 -0.048,0.35 -0.055,0.203 0,0" /></g><g
           transform="translate(142.3487,85.5829)"
           id="g68"><path
             id="path70"
             style="fill:#edca55;fill-opacity:1;fill-rule:nonzero;stroke:none"
             d="m 0,0 c -0.451,0.363 -0.794,0.606 -1.099,0.891 -1.574,1.471 -3.105,2.991 -4.719,4.417 -0.836,0.738 -1.291,1.592 -1.494,2.665 -0.665,3.51 -1.619,6.95 -2.693,10.355 -0.536,1.701 -1.131,3.384 -1.693,5.076 -0.073,0.221 -0.115,0.453 -0.225,0.891 0.366,-0.137 0.604,-0.161 0.748,-0.289 2.067,-1.844 4.115,-3.706 6.179,-5.552 0.647,-0.579 0.93,-1.271 0.834,-2.135 -0.231,-2.065 0.428,-3.852 1.6,-5.54 C -1.723,9.571 -1.008,8.267 -0.335,6.955 0.59,5.154 0.894,3.227 0.536,1.216 0.504,1.036 0.461,0.854 0.391,0.685 0.321,0.517 0.212,0.365 0,0" /></g><g
           transform="translate(65.442,202.7752)"
           id="g72"><path
             id="path74"
             style="fill:#edca55;fill-opacity:1;fill-rule:nonzero;stroke:none"
             d="m 0,0 c 0.392,0.399 0.522,0.62 0.714,0.712 1.106,0.533 2.181,1.135 3.418,1.36 0.538,0.098 1.053,0.34 1.571,0.538 4.676,1.79 9.475,3.157 14.391,4.092 2.421,0.461 4.858,0.836 7.29,1.225 0.768,0.122 1.55,0.245 2.496,-0.003 C 29.648,7.563 29.527,7.293 29.335,7.089 28.153,5.831 26.957,4.586 25.76,3.342 25.409,2.976 25.019,2.71 24.458,2.808 22.47,3.152 20.693,2.401 18.913,1.702 18.11,1.387 17.322,1.031 16.536,0.676 14.174,-0.389 11.764,-0.39 9.317,0.323 8.785,0.479 8.259,0.662 7.719,0.786 6.387,1.092 5.065,1.23 3.705,0.823 2.598,0.492 1.446,0.314 0,0" /></g><g
           transform="translate(97.0606,154.0633)"
           id="g76"><path
             id="path78"
             style="fill:#edca55;fill-opacity:1;fill-rule:nonzero;stroke:none"
             d="m 0,0 c 0.396,-1.817 0.826,-3.412 1.073,-5.035 0.244,-1.603 0.697,-3.127 1.295,-4.618 0.62,-1.542 1.263,-3.076 1.922,-4.68 -0.273,-0.34 -0.504,-0.702 -0.807,-0.988 -1.316,-1.245 -2.819,-2.197 -4.553,-2.757 -0.352,-0.114 -0.71,-0.224 -1.074,-0.28 -1.216,-0.189 -1.903,0.2 -2.211,1.41 -0.196,0.765 -0.291,1.593 -0.234,2.379 0.102,1.409 0.221,2.84 0.565,4.204 0.859,3.413 2.101,6.702 3.569,9.903 C -0.408,-0.36 -0.291,-0.291 0,0" /></g><g
           transform="translate(108.5421,118.2743)"
           id="g80"><path
             id="path82"
             style="fill:#edca55;fill-opacity:1;fill-rule:nonzero;stroke:none"
             d="m 0,0 c -1.021,-3.543 -2.03,-7.088 -3.078,-10.622 -0.113,-0.385 -0.443,-0.705 -0.68,-1.052 -0.032,-0.047 -0.099,-0.069 -0.149,-0.106 -2.415,-1.814 -4.826,-3.633 -7.249,-5.435 -0.426,-0.316 -0.827,-0.726 -1.557,-0.698 -0.049,0.354 -0.166,0.709 -0.132,1.049 0.161,1.592 0.286,3.192 0.572,4.763 0.366,2.017 1.472,3.643 3.043,4.943 0.568,0.471 1.168,0.91 1.783,1.319 2.42,1.612 4.713,3.378 6.724,5.489 0.163,0.172 0.336,0.334 0.505,0.501 C -0.146,0.101 -0.073,0.05 0,0" /></g><g
           transform="translate(124.4444,232.7821)"
           id="g84"><path
             id="path86"
             style="fill:#edca55;fill-opacity:1;fill-rule:nonzero;stroke:none"
             d="m 0,0 c -0.509,-0.031 -0.871,-0.084 -1.231,-0.07 -1.847,0.07 -3.692,0.195 -5.54,0.225 -0.944,0.016 -1.486,0.411 -1.764,1.288 -0.13,0.407 -0.354,0.784 -0.528,1.179 -0.94,2.137 -2.512,3.613 -4.677,4.47 -0.801,0.317 -1.613,0.607 -2.402,0.95 -2.192,0.952 -3.764,2.509 -4.633,4.761 -0.287,0.743 -0.33,1.419 0.25,2.11 0.298,-0.09 0.639,-0.104 0.863,-0.273 1.88,-1.415 4.049,-2.331 6.048,-3.54 C -9.065,8.35 -4.763,5.288 -1.002,1.509 -0.628,1.133 -0.127,0.833 0,0" /></g><g
           transform="translate(115.9044,180.1141)"
           id="g88"><path
             id="path90"
             style="fill:#edca55;fill-opacity:1;fill-rule:nonzero;stroke:none"
             d="m 0,0 c -0.187,-1.136 -0.4,-2.208 -0.53,-3.29 -0.08,-0.663 -0.104,-1.35 -0.031,-2.012 0.237,-2.142 0.58,-4.274 0.783,-6.418 0.121,-1.284 0.162,-2.594 0.052,-3.876 -0.167,-1.966 -0.92,-3.681 -2.589,-4.845 -0.676,0.168 -0.671,0.752 -0.82,1.177 -1.04,2.971 -1.725,6.032 -2.322,9.119 -0.293,1.514 -0.634,3.012 -0.515,4.562 0.032,0.412 0.086,0.912 0.332,1.2 1.443,1.697 3.032,3.243 5.025,4.302 C -0.473,-0.005 -0.275,-0.033 0,0" /></g><g
           transform="translate(84.9366,218.1434)"
           id="g92"><path
             id="path94"
             style="fill:#edca55;fill-opacity:1;fill-rule:nonzero;stroke:none"
             d="m 0,0 c 0.124,0.154 0.153,0.23 0.202,0.247 2.237,0.763 4.53,1.151 6.894,0.898 2.852,-0.307 5.547,-1.142 8.026,-2.606 2.111,-1.247 4.208,-2.517 6.254,-3.743 -0.014,-0.536 -0.344,-0.461 -0.527,-0.423 -3.134,0.645 -6.267,0.134 -9.398,-0.011 -0.98,-0.046 -1.954,-0.234 -2.93,-0.357 -0.776,-0.097 -1.425,0.08 -2.013,0.662 -0.698,0.691 -1.482,1.3 -2.255,1.91 C 3.19,-2.584 2.096,-1.787 1.03,-0.953 0.661,-0.663 0.337,-0.314 0,0" /></g><g
           transform="translate(64.9747,204.0018)"
           id="g96"><path
             id="path98"
             style="fill:#edca55;fill-opacity:1;fill-rule:nonzero;stroke:none"
             d="m 0,0 c -0.043,0.724 0.379,1.201 0.76,1.638 1.051,1.207 2.094,2.433 3.259,3.525 2.894,2.711 6.159,4.917 9.654,6.783 0.159,0.085 0.342,0.126 0.644,0.233 C 16.485,10.78 18.134,8.676 20.6,7.115 19.996,6.871 19.742,6.72 19.469,6.664 15.355,5.828 11.319,4.713 7.394,3.225 6.304,2.811 5.265,2.264 4.208,1.764 2.983,1.184 1.768,0.582 0.54,0.009 0.398,-0.057 0.2,0 0,0" /></g><g
           transform="translate(190.9083,226.2606)"
           id="g100"><path
             id="path102"
             style="fill:#edca55;fill-opacity:1;fill-rule:nonzero;stroke:none"
             d="m 0,0 c 1.577,-0.741 4.939,-3.502 7.956,-6.523 3.92,-3.925 5.898,-6.255 6.628,-7.807 -0.304,-0.25 -0.588,-0.071 -0.844,0.073 -0.857,0.481 -1.729,0.944 -2.547,1.486 -2.91,1.931 -6.071,2.93 -9.588,2.735 -0.721,-0.04 -1.466,-0.096 -2.211,0.2 -0.07,0.263 -0.192,0.496 -0.179,0.721 0.164,2.885 0.344,5.769 0.536,8.653 C -0.238,-0.303 -0.086,-0.153 0,0" /></g><g
           transform="translate(102.8683,99.828)"
           id="g104"><path
             id="path106"
             style="fill:#edca55;fill-opacity:1;fill-rule:nonzero;stroke:none"
             d="m 0,0 c -0.029,-0.314 -0.003,-0.562 -0.08,-0.773 -1.466,-4.057 -2.969,-8.102 -5.23,-11.803 -0.833,-1.363 -1.749,-2.678 -2.658,-3.993 -0.453,-0.656 -1.133,-1.142 -2.175,-1.706 -0.775,0.523 -0.761,1.37 -0.721,2.137 0.038,0.725 0.227,1.462 0.474,2.15 0.564,1.561 1.243,3.082 1.801,4.644 0.476,1.329 0.907,2.681 1.244,4.05 0.161,0.651 0.416,1.126 0.983,1.466 1.053,0.634 2.097,1.282 3.138,1.935 0.521,0.328 1.016,0.697 1.541,1.016 C -1.178,-0.57 -0.754,-0.093 0,0" /></g><g
           transform="translate(172.8038,108.5633)"
           id="g108"><path
             id="path110"
             style="fill:#edca55;fill-opacity:1;fill-rule:nonzero;stroke:none"
             d="m 0,0 c -1.091,-0.379 -1.849,-0.229 -2.544,0.249 -1.218,0.839 -2.428,1.688 -3.63,2.548 -1.102,0.788 -2.165,1.634 -3.291,2.386 -1.46,0.975 -3.083,1.537 -4.844,1.677 -0.241,0.02 -0.478,0.089 -0.697,0.131 -0.473,1.546 -1.029,6.236 -0.932,7.982 0.299,-0.139 0.587,-0.215 0.807,-0.381 C -10.002,10.705 -5.238,6.43 -1.194,1.396 -0.858,0.979 -0.499,0.582 0,0" /></g><g
           transform="translate(123.5069,93.5878)"
           id="g112"><path
             id="path114"
             style="fill:#edca55;fill-opacity:1;fill-rule:nonzero;stroke:none"
             d="m 0,0 c -0.407,1.095 -0.298,1.954 -0.27,2.796 0.089,2.603 0.746,5.099 1.492,7.576 0.798,2.647 1.776,5.25 2.009,8.038 0.072,0.845 0.125,1.691 0.196,2.654 0.61,-0.157 0.672,-0.627 0.8,-0.971 0.771,-2.075 1.514,-4.16 2.26,-6.244 C 6.736,13.153 6.946,12.444 7.216,11.758 7.471,11.11 7.319,10.57 6.933,10.032 6.143,8.933 5.355,7.831 4.604,6.705 3.583,5.173 2.6,3.614 1.593,2.072 1.161,1.411 0.753,0.729 0,0" /></g><g
           transform="translate(91.0079,189.5736)"
           id="g116"><path
             id="path118"
             style="fill:#edca55;fill-opacity:1;fill-rule:nonzero;stroke:none"
             d="M 0,0 C 3.762,0.651 7.37,0.708 11.165,0.891 10.965,0.588 10.885,0.373 10.73,0.249 8.186,-1.804 5.866,-4.096 3.635,-6.475 2.87,-7.29 1.99,-7.672 0.906,-7.826 c -1.395,-0.198 -2.773,-0.526 -4.159,-0.799 -1.374,-0.27 -2.745,-0.567 -4.299,-0.577 0.067,0.387 0.054,0.693 0.174,0.932 0.373,0.751 1.009,1.243 1.792,1.501 1.164,0.384 2.344,0.72 3.52,1.069 0.469,0.139 0.961,0.221 1.417,0.396 1.357,0.524 1.685,1.162 1.331,2.589 C 0.549,-2.18 0.321,-1.669 0.17,-1.138 0.089,-0.854 0.078,-0.55 0,0" /></g><g
           transform="translate(116.4239,198.1165)"
           id="g120"><path
             id="path122"
             style="fill:#edca55;fill-opacity:1;fill-rule:nonzero;stroke:none"
             d="m 0,0 c -0.479,-0.251 -0.724,-0.435 -0.997,-0.515 -3.419,-0.989 -6.431,-2.787 -9.34,-4.761 -1.006,-0.683 -2.003,-1.148 -3.244,-1.101 -0.669,0.025 -1.346,-0.125 -2.017,-0.208 -2.442,-0.302 -4.882,-0.617 -7.326,-0.907 -0.42,-0.05 -0.851,-0.008 -1.269,-0.008 -0.182,0.616 0.285,0.833 0.611,1.025 1.325,0.779 2.646,1.579 4.034,2.234 5.173,2.442 10.621,3.865 16.337,4.239 0.92,0.06 1.838,0.146 2.757,0.213 C -0.4,0.215 -0.343,0.162 0,0" /></g><g
           transform="translate(190.5352,228.4915)"
           id="g124"><path
             id="path126"
             style="fill:#edca55;fill-opacity:1;fill-rule:nonzero;stroke:none"
             d="m 0,0 c 2.132,0.198 3.837,0.248 5.547,-0.056 0.638,-0.113 1.155,-0.353 1.604,-0.813 2.886,-2.949 5.656,-6.004 7.938,-9.45 0.702,-1.061 1.166,-2.293 1.648,-3.483 0.28,-0.69 0.284,-1.439 -0.33,-2.191 -1.37,1.372 -2.35,3.003 -3.668,4.337 -1.34,1.356 -2.643,2.75 -4.015,4.073 -1.328,1.28 -2.7,2.516 -4.092,3.725 C 3.203,-2.618 1.727,-1.434 0,0" /></g><g
           transform="translate(183.6944,109.909)"
           id="g128"><path
             id="path130"
             style="fill:#9e824d;fill-opacity:1;fill-rule:nonzero;stroke:none"
             d="m 0,0 c -2.128,0.954 -4.354,1.876 -6.707,2.327 -1.876,0.36 -3.279,1.096 -4.134,2.902 -0.408,0.862 -1.217,1.533 -1.834,2.297 -0.261,0.324 -0.495,0.666 -0.874,1.18 0.477,0.044 0.763,0.138 1.016,0.082 3.662,-0.8 7.338,-1.562 10.811,-3.027 0.79,-0.334 1.557,-0.74 2.287,-1.189 C 1.027,4.288 1.457,3.907 1.808,3.49 2.45,2.726 2.408,1.896 1.723,1.165 1.264,0.675 0.775,0.197 0,0" /></g><g
           transform="translate(143.8966,132.1312)"
           id="g132"><path
             id="path134"
             style="fill:#edca55;fill-opacity:1;fill-rule:nonzero;stroke:none"
             d="m 0,0 c 1.347,-0.339 4.793,-2.406 7.376,-4.406 0.461,-1.955 1.366,-9.575 1.316,-11.226 -0.305,0.084 -0.608,0.118 -0.865,0.245 -1.302,0.647 -2.332,1.62 -3.086,2.843 -0.481,0.78 -0.883,1.625 -1.206,2.484 -1.194,3.167 -2.344,6.352 -3.5,9.533 C -0.021,-0.373 0.01,-0.187 0,0" /></g><g
           transform="translate(104.3731,99.495)"
           id="g136"><path
             id="path138"
             style="fill:#edca55;fill-opacity:1;fill-rule:nonzero;stroke:none"
             d="M 0,0 C 0.343,-0.715 0.53,-1.031 0.651,-1.372 1.372,-3.397 2.069,-5.43 2.792,-7.454 2.987,-8 3.076,-8.5 2.719,-9.025 c -1.593,-2.344 -3.336,-4.562 -5.377,-6.536 -0.119,-0.115 -0.32,-0.147 -0.577,-0.259 -0.143,0.282 -0.302,0.531 -0.398,0.803 -0.285,0.811 -0.496,1.651 -0.826,2.442 -0.368,0.882 -0.224,1.662 0.207,2.464 0.377,0.702 0.736,1.42 1.033,2.159 0.868,2.164 1.698,4.345 2.552,6.515 C -0.518,-1.059 -0.325,-0.697 0,0" /></g><g
           transform="translate(110.0655,117.5399)"
           id="g140"><path
             id="path142"
             style="fill:#edca55;fill-opacity:1;fill-rule:nonzero;stroke:none"
             d="m 0,0 c 0.585,-1.699 1.158,-3.384 1.744,-5.063 0.491,-1.409 0.673,-2.872 0.772,-4.346 0.207,-3.097 -0.013,-6.148 -1.025,-9.108 -0.078,-0.227 -0.189,-0.444 -0.273,-0.639 -0.515,-0.098 -0.524,0.287 -0.604,0.544 -0.311,0.996 -0.6,1.999 -0.889,3.002 -0.664,2.303 -1.315,4.611 -1.99,6.912 -0.23,0.787 -0.264,1.542 -0.016,2.343 0.581,1.879 1.093,3.781 1.669,5.662 C -0.526,-0.413 -0.549,0.099 0,0" /></g><g
           transform="translate(117.3849,248.1107)"
           id="g144"><path
             id="path146"
             style="fill:#edca55;fill-opacity:1;fill-rule:nonzero;stroke:none"
             d="m 0,0 c 0.836,-2.457 0.82,-4.961 1.02,-7.648 -0.531,0.298 -0.916,0.466 -1.246,0.71 -2.28,1.682 -4.642,3.236 -7.124,4.607 -1.29,0.713 -2.545,1.489 -3.975,1.932 -0.557,0.172 -1.051,0.551 -1.674,0.891 0.668,0.819 1.41,1.219 2.288,1.267 0.791,0.042 1.629,0.082 2.38,-0.12 C -5.829,0.966 -3.252,0.732 -0.726,0.218 -0.548,0.182 -0.377,0.114 0,0" /></g><g
           transform="translate(89.1886,174.3123)"
           id="g148"><path
             id="path150"
             style="fill:#edca55;fill-opacity:1;fill-rule:nonzero;stroke:none"
             d="m 0,0 c 0.467,-3.682 0.715,-7.17 1.031,-10.581 -2.964,-1.94 -5.716,-2.274 -8.11,-1.044 -0.184,0.734 0.259,1.309 0.585,1.871 1.084,1.861 2.205,3.702 3.355,5.523 0.79,1.251 1.647,2.46 2.49,3.676 C -0.528,-0.38 -0.318,-0.267 0,0" /></g><g
           transform="translate(136.0558,89.409)"
           id="g152"><path
             id="path154"
             style="fill:#edca55;fill-opacity:1;fill-rule:nonzero;stroke:none"
             d="M 0,0 C 1.305,-0.837 4.795,-4.148 5.739,-5.45 5.521,-5.933 5.302,-6.498 5.02,-7.031 4.43,-8.146 4.168,-9.323 4.191,-10.582 c 0.024,-1.291 -0.018,-2.583 0.008,-3.874 0.022,-1.032 -0.321,-1.927 -0.922,-2.737 -0.338,-0.455 -0.759,-0.797 -1.451,-0.82 -0.306,0.797 -0.304,1.645 -0.321,2.487 -0.018,0.793 0.049,1.591 -0.025,2.379 -0.259,2.752 -0.54,5.504 -0.863,8.251 C 0.475,-3.677 0.194,-2.474 0.01,-1.259 -0.05,-0.869 0,-0.464 0,0" /></g><g
           transform="translate(131.4308,102.6571)"
           id="g156"><path
             id="path158"
             style="fill:#edca55;fill-opacity:1;fill-rule:nonzero;stroke:none"
             d="m 0,0 c 0.685,-1.419 0.938,-2.803 1.211,-4.164 0.07,-0.348 -0.202,-0.82 -0.43,-1.16 -0.819,-1.227 -1.705,-2.408 -2.531,-3.631 -1.133,-1.678 -2.23,-3.38 -3.355,-5.063 -0.16,-0.238 -0.389,-0.428 -0.645,-0.704 -1.094,1.03 -1.669,2.225 -1.956,3.558 -0.069,0.32 0.024,0.746 0.194,1.035 0.404,0.687 0.813,1.405 1.371,1.959 1.326,1.316 2.224,2.933 3.306,4.419 0.688,0.943 1.322,1.925 2.003,2.874 0.2,0.28 0.476,0.506 0.832,0.877" /></g><g
           transform="translate(84.0465,176.952)"
           id="g160"><path
             id="path162"
             style="fill:#edca55;fill-opacity:1;fill-rule:nonzero;stroke:none"
             d="M 0,0 C 0.345,0.112 0.572,0.234 0.806,0.254 2.215,0.376 3.625,0.478 5.036,0.571 5.125,0.577 5.223,0.456 5.369,0.36 5.29,-0.197 4.889,-0.589 4.566,-1.024 2.543,-3.749 0.612,-6.536 -0.997,-9.527 c -0.58,-1.078 -1.014,-2.235 -1.538,-3.345 -0.124,-0.262 -0.341,-0.48 -0.558,-0.777 -1.131,0.827 -1.517,1.858 -1.343,3.11 0.155,1.11 0.519,2.159 1.114,3.114 0.425,0.679 0.843,1.366 1.322,2.007 1.02,1.361 1.727,2.836 1.86,4.555 0.018,0.24 0.076,0.478 0.14,0.863" /></g><g
           transform="translate(115.3175,196.0746)"
           id="g164"><path
             id="path166"
             style="fill:#edca55;fill-opacity:1;fill-rule:nonzero;stroke:none"
             d="m 0,0 c -0.271,-0.317 -0.544,-0.633 -0.812,-0.953 -1.96,-2.332 -3.422,-4.948 -4.473,-7.803 -0.743,-2.018 -1.502,-4.031 -2.276,-6.037 -0.19,-0.493 -0.352,-1.039 -1.057,-1.362 -0.035,0.506 -0.111,0.908 -0.082,1.303 0.235,3.374 0.5,6.748 0.728,10.123 0.051,0.741 0.326,1.275 0.973,1.656 C -4.83,-1.793 -2.623,-0.6 0,0" /></g><g
           transform="translate(135.7159,150.1146)"
           id="g168"><path
             id="path170"
             style="fill:#edca55;fill-opacity:1;fill-rule:nonzero;stroke:none"
             d="m 0,0 c 0.237,-0.269 0.446,-0.494 0.642,-0.73 0.118,-0.142 0.246,-0.287 0.315,-0.454 0.855,-2.051 2.566,-3.57 3.646,-5.711 -0.439,-0.023 -0.737,-0.114 -0.987,-0.04 -0.821,0.243 -1.653,0.483 -2.429,0.839 -1.23,0.564 -2.425,1.203 -3.62,1.841 -2.254,1.203 -4.631,1.965 -7.194,2.111 -0.243,0.014 -0.483,0.06 -0.762,0.095 C -8.688,-0.588 -3.796,0.386 0,0" /></g><g
           transform="translate(188.7696,216.6986)"
           id="g172"><path
             id="path174"
             style="fill:#edca55;fill-opacity:1;fill-rule:nonzero;stroke:none"
             d="m 0,0 c -1.171,-0.289 -2.012,0.054 -2.823,0.435 -0.373,1.332 -0.443,5.355 -0.197,11.612 0.016,0.404 0.131,0.804 0.219,1.313 C -1.524,12.807 -0.6,12.003 0.32,11.209 0.524,11.033 0.692,10.671 0.677,10.407 0.475,6.975 0.236,3.544 0,0" /></g><g
           transform="translate(94.5977,203.6165)"
           id="g176"><path
             id="path178"
             style="fill:#edca55;fill-opacity:1;fill-rule:nonzero;stroke:none"
             d="M 0,0 C 0.246,0.345 0.388,0.607 0.587,0.813 2.559,2.855 4.55,4.88 6.512,6.931 6.971,7.41 7.462,7.666 8.133,7.64 9.243,7.599 10.355,7.623 11.465,7.573 11.814,7.558 12.157,7.396 12.538,7.292 12.454,7.039 12.443,6.832 12.336,6.706 10.231,4.25 7.902,2.073 4.909,0.71 3.595,0.112 2.207,-0.135 0.787,-0.24 0.574,-0.255 0.349,-0.111 0,0" /></g><g
           transform="translate(99.8165,159.3631)"
           id="g180"><path
             id="path182"
             style="fill:#edca55;fill-opacity:1;fill-rule:nonzero;stroke:none"
             d="m 0,0 c 0.475,-3.021 0.809,-5.824 1.379,-8.578 0.562,-2.713 1.551,-5.312 2.761,-7.88 -0.365,-0.756 -0.689,-1.535 -1.559,-1.985 -0.655,0.835 -0.981,1.768 -1.305,2.685 -0.756,2.146 -1.412,4.329 -2.204,6.461 -0.565,1.521 -0.822,3.091 -0.987,4.679 C -2.079,-3.03 -1.452,-1.552 0,0" /></g><g
           transform="translate(187.7618,235.2005)"
           id="g184"><path
             id="path186"
             style="fill:#edca55;fill-opacity:1;fill-rule:nonzero;stroke:none"
             d="m 0,0 c -0.19,-0.05 -0.358,-0.15 -0.509,-0.127 -2.619,0.391 -5.241,0.764 -7.848,1.22 -0.836,0.146 -1.676,0.43 -2.439,0.805 -2.718,1.337 -5.506,2.476 -8.426,3.294 -0.312,0.088 -0.755,0.038 -0.912,0.475 C -14.117,6.519 -3.777,3.464 0,0" /></g><g
           transform="translate(162.5167,121.1659)"
           id="g188"><path
             id="path190"
             style="fill:#edca55;fill-opacity:1;fill-rule:nonzero;stroke:none"
             d="m 0,0 c 1.881,0.061 3.466,0.388 5.139,0.151 0.213,-0.35 0.409,-0.729 0.657,-1.071 0.869,-1.194 1.723,-2.403 2.645,-3.555 0.85,-1.06 1.729,-2.09 2.357,-3.307 0.557,-1.081 0.769,-2.208 0.508,-3.404 -0.035,-0.156 -0.169,-0.291 -0.327,-0.548 -0.253,0.26 -0.483,0.448 -0.653,0.678 -0.51,0.692 -0.95,1.44 -1.501,2.095 C 6.637,-6.357 4.242,-3.957 1.631,-1.773 1.084,-1.315 0.468,-0.9 0,0" /></g><g
           transform="translate(106.9386,107.1337)"
           id="g192"><path
             id="path194"
             style="fill:#edca55;fill-opacity:1;fill-rule:nonzero;stroke:none"
             d="m 0,0 c 0.157,-0.459 0.332,-0.914 0.468,-1.379 0.778,-2.66 1.484,-5.343 2.345,-7.975 0.46,-1.408 0.423,-2.637 -0.471,-3.828 -0.283,-0.376 -0.527,-0.781 -0.896,-1.334 -0.232,0.516 -0.399,0.829 -0.518,1.16 -0.838,2.317 -1.653,4.643 -2.503,6.957 -0.266,0.72 -0.339,1.388 -0.074,2.143 0.486,1.387 0.875,2.808 1.303,4.215 z" /></g><g
           transform="translate(181.7403,234.5091)"
           id="g196"><path
             id="path198"
             style="fill:#edca55;fill-opacity:1;fill-rule:nonzero;stroke:none"
             d="m 0,0 c 2.314,0.306 4.188,-0.152 6.083,-0.277 1.895,-0.124 3.39,-0.956 4.767,-2.153 0.883,-0.769 1.804,-1.495 2.7,-2.251 0.068,-0.059 0.064,-0.203 0.111,-0.362 -0.159,-0.051 -0.326,-0.163 -0.475,-0.143 -1.404,0.183 -2.847,0.025 -4.214,0.502 C 8.914,-4.664 8.849,-4.645 8.79,-4.652 6.896,-4.888 5.521,-3.849 4.116,-2.816 2.882,-1.908 1.587,-1.08 0,0" /></g><g
           transform="translate(113.9327,106.9422)"
           id="g200"><path
             id="path202"
             style="fill:#9e824d;fill-opacity:1;fill-rule:nonzero;stroke:none"
             d="m 0,0 c -0.088,3.143 -0.881,5.969 -1.944,8.689 0.453,0.637 1.051,0.473 1.576,0.514 C 0.123,9.241 0.619,9.242 1.111,9.226 1.652,9.207 2.192,9.149 2.814,9.102 2.874,8.584 2.971,8.169 2.96,7.756 2.92,6.153 2.854,4.551 2.781,2.949 2.703,1.238 2.126,0.585 0,0" /></g><g
           transform="translate(123.5606,236.0687)"
           id="g204"><path
             id="path206"
             style="fill:#edca55;fill-opacity:1;fill-rule:nonzero;stroke:none"
             d="m 0,0 c -1.221,1.032 -2.123,1.771 -2.995,2.547 -0.216,0.192 -0.428,0.48 -0.478,0.754 -0.45,2.481 -1.139,4.919 -1.357,7.441 -0.019,0.221 0.055,0.449 0.101,0.792 1.316,-0.369 2.332,-1.043 3.264,-1.837 0.256,-0.218 0.443,-0.6 0.514,-0.938 C -0.773,7.917 -0.665,7.058 -0.556,6.203 -0.36,4.678 -0.174,3.152 -0.007,1.624 0.038,1.216 0,0.798 0,0" /></g><g
           transform="translate(129.1661,227.2284)"
           id="g208"><path
             id="path210"
             style="fill:#edca55;fill-opacity:1;fill-rule:nonzero;stroke:none"
             d="m 0,0 c -1.873,0.401 -3.483,0.769 -5.104,1.083 -1.026,0.2 -2.073,0.29 -3.099,0.484 -1.332,0.253 -2.367,1.004 -3.178,2.07 -0.1,0.133 -0.115,0.33 -0.184,0.545 0.171,0.092 0.323,0.245 0.47,0.241 C -8.814,4.37 -6.536,4.271 -4.256,4.239 -3.225,4.225 -2.512,3.757 -1.945,2.957 -1.311,2.059 -0.567,1.231 0,0" /></g><g
           transform="translate(125.4601,116.0155)"
           id="g212"><path
             id="path214"
             style="fill:#9e824d;fill-opacity:1;fill-rule:nonzero;stroke:none"
             d="m 0,0 c 0.694,-1.923 0.346,-3.748 -0.094,-5.554 -0.908,-0.402 -1.599,0.271 -2.385,0.269 -0.784,-0.002 -1.567,0.138 -2.407,0.222 -0.219,1.707 -0.103,3.325 -0.018,4.998 C -3.191,0.292 -1.637,0.22 0,0" /></g><g
           transform="translate(111.3018,117.537)"
           id="g216"><path
             id="path218"
             style="fill:#9e824d;fill-opacity:1;fill-rule:nonzero;stroke:none"
             d="M 0,0 C -0.336,1.687 -0.285,3.131 -0.114,4.606 0.812,5.191 1.815,4.889 2.764,4.94 3.733,4.992 4.708,4.952 5.749,4.952 6.124,3.326 5.726,1.821 5.803,0.315 5.597,0.211 5.443,0.07 5.283,0.062 3.578,-0.02 1.873,-0.071 0,0" /></g><g
           transform="translate(90.3038,211.9232)"
           id="g220"><path
             id="path222"
             style="fill:#edca55;fill-opacity:1;fill-rule:nonzero;stroke:none"
             d="m 0,0 c -0.806,-0.482 -1.715,-0.55 -2.614,-0.545 -0.399,0.002 -0.835,0.17 -1.184,0.38 -0.468,0.283 -0.855,0.695 -1.298,1.025 -1.129,0.841 -2.278,1.655 -3.402,2.504 -0.475,0.359 -0.904,0.778 -1.37,1.183 0.355,0.645 0.918,0.747 1.414,0.929 0.517,0.188 1.047,0.408 1.584,0.45 0.314,0.025 0.75,-0.187 0.967,-0.435 C -4.195,3.535 -2.039,2.094 -0.125,0.378 -0.05,0.31 -0.05,0.158 0,0" /></g><g
           transform="translate(129.0157,229.5311)"
           id="g224"><path
             id="path226"
             style="fill:#edca55;fill-opacity:1;fill-rule:nonzero;stroke:none"
             d="m 0,0 c -0.616,0.771 -1,1.23 -1.36,1.708 -0.333,0.443 -0.576,0.976 -0.973,1.346 -1.302,1.213 -1.694,2.778 -1.952,4.447 -0.319,2.065 -0.732,4.117 -1.094,6.176 -0.037,0.214 -0.005,0.44 -0.005,0.659 0.572,0.026 0.715,-0.362 0.922,-0.64 1.388,-1.858 2.19,-3.982 2.763,-6.202 0.554,-2.147 1.09,-4.299 1.624,-6.451 C -0.024,0.837 -0.041,0.614 0,0" /></g><g
           transform="translate(144.1319,144.367)"
           id="g228"><path
             id="path230"
             style="fill:#edca55;fill-opacity:1;fill-rule:nonzero;stroke:none"
             d="m 0,0 c -1.005,1.457 -1.947,2.818 -2.876,4.188 -0.045,0.067 0.031,0.217 0.052,0.328 0.113,0.03 0.24,0.109 0.338,0.082 2.86,-0.774 5.66,-1.715 8.175,-3.32 0.66,-0.42 1.227,-1.007 1.765,-1.584 0.318,-0.34 -0.031,-0.947 -0.5,-0.903 -0.422,0.04 -0.845,0.143 -1.251,0.271 C 4.767,-0.643 3.859,-0.2 2.902,-0.033 2.008,0.123 1.065,0 0,0" /></g><g
           transform="translate(120.5597,102.4706)"
           id="g232"><path
             id="path234"
             style="fill:#9e824d;fill-opacity:1;fill-rule:nonzero;stroke:none"
             d="M 0,0 C -0.18,1.916 -0.081,3.865 -0.073,5.736 0.479,6.369 1.123,6.232 1.719,6.196 2.566,6.146 3.431,6.103 4.215,5.406 3.729,3.534 3.28,1.649 2.513,-0.074 1.162,-0.309 1.162,-0.309 0,0" /></g><g
           transform="translate(107.3487,134.411)"
           id="g236"><path
             id="path238"
             style="fill:#edca55;fill-opacity:1;fill-rule:nonzero;stroke:none"
             d="m 0,0 c 0.123,-0.254 0.32,-0.498 0.353,-0.761 0.147,-1.218 0.256,-2.44 0.36,-3.663 0.019,-0.236 -0.051,-0.48 -0.09,-0.801 -1.361,-0.584 -2.492,-1.511 -3.585,-2.507 -0.436,-0.399 -1.021,-0.637 -1.665,-1.023 -0.191,0.454 -0.477,0.797 -0.42,1.065 0.128,0.59 0.376,1.171 0.668,1.706 1.125,2.055 2.454,3.975 3.961,5.77 C -0.349,-0.13 -0.21,-0.104 0,0" /></g><g
           transform="translate(128.6827,114.3221)"
           id="g240"><path
             id="path242"
             style="fill:#edca55;fill-opacity:1;fill-rule:nonzero;stroke:none"
             d="M 0,0 C 0.259,0 0.401,0.045 0.485,-0.007 2.479,-1.225 4.504,-2.399 6.44,-3.704 7.294,-4.278 8.007,-5.085 8.714,-5.85 9.355,-6.542 9.671,-7.423 9.77,-8.361 9.793,-8.579 9.694,-8.809 9.639,-9.099 9.385,-9.003 9.188,-8.981 9.065,-8.875 6.54,-6.716 4.039,-4.527 1.496,-2.39 0.758,-1.77 0.201,-1.094 0,0" /></g><g
           transform="translate(153.1017,126.2582)"
           id="g244"><path
             id="path246"
             style="fill:#edca55;fill-opacity:1;fill-rule:nonzero;stroke:none"
             d="M 0,0 C 1.402,-0.508 2.215,-1.249 2.351,-2.661 2.571,-4.981 2.86,-7.295 3.114,-9.613 3.14,-9.849 3.117,-10.09 3.117,-10.365 2.475,-10.764 1.898,-10.458 1.334,-10.359 0.735,-8.929 -0.162,-2.165 0,0" /></g><g
           transform="translate(95.962,96.9178)"
           id="g248"><path
             id="path250"
             style="fill:#edca55;fill-opacity:1;fill-rule:nonzero;stroke:none"
             d="M 0,0 V 2.067 C 1.142,3.078 6.622,6.73 8.1,7.471 8.375,6.609 8.144,5.654 7.514,5.058 7.469,5.015 7.423,4.974 7.373,4.937 5.177,3.364 2.982,1.788 0.776,0.229 0.598,0.102 0.336,0.094 0,0" /></g><g
           transform="translate(99.6114,211.054)"
           id="g252"><path
             id="path254"
             style="fill:#edca55;fill-opacity:1;fill-rule:nonzero;stroke:none"
             d="m 0,0 c -0.69,-1.121 -5.026,-5.683 -6.683,-7.024 -0.3,0.198 -0.633,0.418 -0.924,0.609 0.029,0.23 0.001,0.389 0.066,0.459 1.681,1.803 3.378,3.59 5.056,5.395 C -1.775,0.203 -0.963,0.331 0,0" /></g><g
           transform="translate(120.4151,117.6503)"
           id="g256"><path
             id="path258"
             style="fill:#9e824d;fill-opacity:1;fill-rule:nonzero;stroke:none"
             d="M 0,0 V 3.111 C 1.084,3.905 2.106,3.731 3.109,3.104 3.968,2.565 4.658,1.441 5.022,0.016 3.389,-0.217 1.777,-0.109 0,0" /></g><g
           transform="translate(104.0665,177.3026)"
           id="g260"><path
             id="path262"
             style="fill:#edca55;fill-opacity:1;fill-rule:nonzero;stroke:none"
             d="m 0,0 c -0.042,0.057 -0.115,0.109 -0.111,0.155 0.114,1.286 0.231,2.572 0.359,3.856 0.201,2.024 0.403,4.048 0.621,6.071 0.112,1.041 0.255,2.08 0.396,3.118 0.042,0.305 0.061,0.302 0.697,0.635 C 1.996,13.784 2.063,13.73 2.06,13.682 1.736,9.566 1.408,5.451 1.077,1.335 1.058,1.09 1.062,0.828 0.974,0.606 0.807,0.181 0.527,-0.131 0,0" /></g><g
           transform="translate(137.1876,149.7059)"
           id="g264"><path
             id="path266"
             style="fill:#edca55;fill-opacity:1;fill-rule:nonzero;stroke:none"
             d="M 0,0 C 1.016,0.369 1.761,-0.185 2.588,-0.323 2.77,-0.609 2.951,-0.858 3.094,-1.127 3.919,-2.696 4.735,-4.269 5.542,-5.816 5.164,-6.316 4.787,-6.339 4.398,-5.987 4.218,-5.824 4.085,-5.608 3.936,-5.411 2.785,-3.889 1.632,-2.369 0.489,-0.84 0.313,-0.605 0.19,-0.33 0,0" /></g><g
           transform="translate(83.9063,177.9774)"
           id="g268"><path
             id="path270"
             style="fill:#edca55;fill-opacity:1;fill-rule:nonzero;stroke:none"
             d="M 0,0 C -0.128,0.345 -0.214,0.508 -0.245,0.681 -0.276,0.856 -0.252,1.041 -0.252,1.24 -0.083,1.344 0.056,1.491 0.216,1.519 1.354,1.715 2.476,1.956 3.657,1.941 4.744,1.928 5.834,2.224 6.923,2.378 7.213,2.419 7.505,2.441 7.784,2.471 7.995,1.834 7.556,1.621 7.26,1.356 7.134,1.244 6.93,1.201 6.753,1.166 4.958,0.806 3.163,0.446 1.364,0.108 0.953,0.03 0.524,0.039 0,0" /></g><g
           transform="translate(93.2599,80.5956)"
           id="g272"><path
             id="path274"
             style="fill:#edca55;fill-opacity:1;fill-rule:nonzero;stroke:none"
             d="M 0,0 C 1.212,1.36 2.453,2.196 3.681,3.167 4.299,2.318 4.416,1.408 4.72,0.516 4.244,-0.079 3.601,-0.433 2.914,-0.642 2.467,-0.778 1.937,-0.786 1.476,-0.691 1.03,-0.601 0.626,-0.305 0,0" /></g><g
           transform="translate(113.9444,102.4315)"
           id="g276"><path
             id="path278"
             style="fill:#9e824d;fill-opacity:1;fill-rule:nonzero;stroke:none"
             d="M 0,0 C -0.05,0.11 -0.138,0.219 -0.142,0.33 -0.213,2.185 -0.178,2.234 1.559,2.803 1.791,2.879 2.03,2.939 2.269,2.995 2.322,3.008 2.388,2.973 2.447,2.96 2.788,1.678 2.789,1.474 2.465,-0.017 1.188,-0.291 1.188,-0.291 0,0" /></g><g
           transform="translate(110.4298,137.5941)"
           id="g280"><path
             id="path282"
             style="fill:#edca55;fill-opacity:1;fill-rule:nonzero;stroke:none"
             d="M 0,0 C 0.921,0.972 1.978,1.612 3.467,1.943 3.243,1.11 2.714,0.666 2.443,0.094 2.181,-0.461 1.989,-1.051 1.793,-1.635 1.58,-2.271 1.396,-2.917 1.216,-3.505 1.032,-3.532 0.966,-3.561 0.913,-3.544 0.87,-3.532 0.822,-3.471 0.812,-3.424 0.54,-2.293 0.274,-1.162 0,0" /></g><g
           transform="translate(109.4659,136.7186)"
           id="g284"><path
             id="path286"
             style="fill:#edca55;fill-opacity:1;fill-rule:nonzero;stroke:none"
             d="m 0,0 c 0.153,-0.231 0.265,-0.325 0.277,-0.431 0.192,-1.527 0.375,-3.054 0.549,-4.582 0.096,-0.84 0.086,-0.841 -0.802,-1.533 -0.089,0.238 -0.193,0.438 -0.241,0.651 -0.255,1.139 -0.442,2.295 -0.757,3.417 C -1.354,-1.115 -1.376,-1.064 0,0" /></g><g
           transform="translate(99.1642,81.619)"
           id="g288"><path
             id="path290"
             style="fill:#edca55;fill-opacity:1;fill-rule:nonzero;stroke:none"
             d="M 0,0 C -0.461,1.361 -0.803,2.326 -1.11,3.303 -1.255,3.761 -1.228,3.771 -0.612,4.51 0.013,3.563 0.76,1.649 0.71,0.891 0.695,0.677 0.396,0.48 0,0" /></g><g
           transform="translate(99.1642,81.619)"
           id="g292"><path
             id="path294"
             style="fill:#523b36;fill-opacity:1;fill-rule:nonzero;stroke:none"
             d="M 0,0 C 0.396,0.48 0.695,0.677 0.71,0.891 0.76,1.649 0.013,3.563 -0.612,4.51 -1.228,3.771 -1.255,3.761 -1.11,3.303 -0.803,2.326 -0.461,1.361 0,0 M 10.302,55.1 C 8.926,54.035 8.947,53.985 9.328,52.622 9.643,51.5 9.83,50.343 10.085,49.205 c 0.048,-0.213 0.151,-0.414 0.241,-0.651 0.888,0.692 0.898,0.693 0.802,1.532 -0.174,1.529 -0.357,3.056 -0.549,4.582 -0.013,0.106 -0.124,0.2 -0.277,0.432 m 0.964,0.875 c 0.274,-1.162 0.54,-2.293 0.811,-3.424 0.011,-0.047 0.059,-0.108 0.102,-0.12 0.052,-0.016 0.119,0.012 0.302,0.039 0.181,0.588 0.365,1.234 0.578,1.87 0.196,0.584 0.387,1.174 0.65,1.729 0.27,0.572 0.8,1.016 1.023,1.849 -1.489,-0.331 -2.545,-0.971 -3.466,-1.943 M 14.78,20.812 c 1.189,-0.291 1.189,-0.291 2.465,-0.016 0.324,1.49 0.323,1.694 -0.017,2.976 -0.06,0.013 -0.125,0.048 -0.179,0.036 -0.238,-0.056 -0.478,-0.117 -0.71,-0.193 -1.736,-0.568 -1.772,-0.618 -1.7,-2.472 0.004,-0.112 0.091,-0.22 0.141,-0.331 M -5.904,-1.023 c 0.626,-0.305 1.03,-0.601 1.475,-0.692 0.461,-0.095 0.991,-0.087 1.439,0.05 0.686,0.209 1.33,0.562 1.805,1.157 -0.303,0.893 -0.42,1.803 -1.039,2.652 -1.227,-0.971 -2.468,-1.807 -3.68,-3.167 m -9.354,97.381 c 0.525,0.039 0.953,0.031 1.364,0.108 1.799,0.338 3.594,0.699 5.389,1.058 0.177,0.036 0.381,0.078 0.507,0.19 0.296,0.265 0.735,0.478 0.524,1.115 -0.279,-0.03 -0.571,-0.052 -0.861,-0.093 -1.089,-0.154 -2.179,-0.449 -3.266,-0.436 -1.181,0.014 -2.302,-0.226 -3.441,-0.423 -0.16,-0.028 -0.299,-0.175 -0.468,-0.278 0,-0.2 -0.024,-0.385 0.007,-0.56 0.031,-0.173 0.117,-0.335 0.245,-0.681 M 38.023,68.087 c 0.191,-0.33 0.314,-0.605 0.49,-0.84 1.142,-1.529 2.296,-3.049 3.446,-4.571 0.149,-0.197 0.282,-0.413 0.463,-0.576 0.389,-0.352 0.766,-0.329 1.143,0.171 -0.806,1.547 -1.623,3.12 -2.448,4.688 -0.142,0.27 -0.324,0.519 -0.506,0.805 -0.827,0.138 -1.572,0.692 -2.588,0.323 M 4.902,95.684 c 0.528,-0.132 0.807,0.18 0.974,0.606 0.088,0.222 0.084,0.483 0.103,0.729 0.332,4.115 0.66,8.231 0.983,12.347 0.004,0.048 -0.064,0.102 -0.098,0.153 -0.635,-0.333 -0.655,-0.33 -0.697,-0.636 C 6.026,107.845 5.884,106.807 5.771,105.765 5.554,103.743 5.352,101.719 5.15,99.694 5.022,98.41 4.905,97.124 4.791,95.839 4.787,95.793 4.86,95.741 4.902,95.684 M 21.251,36.031 c 1.777,-0.109 3.389,-0.217 5.022,0.016 -0.364,1.426 -1.054,2.55 -1.913,3.088 -1.003,0.628 -2.025,0.802 -3.109,0.008 z M 0.447,129.435 c -0.963,0.331 -1.775,0.203 -2.485,-0.561 -1.678,-1.805 -3.375,-3.592 -5.056,-5.395 -0.065,-0.07 -0.037,-0.229 -0.066,-0.459 0.291,-0.191 0.624,-0.411 0.925,-0.609 1.656,1.341 5.992,5.903 6.682,7.024 M -3.202,15.299 c 0.336,0.094 0.598,0.101 0.776,0.228 2.206,1.56 4.401,3.136 6.597,4.709 0.05,0.036 0.096,0.077 0.141,0.12 0.629,0.597 0.861,1.552 0.585,2.414 -1.477,-0.741 -6.958,-4.393 -8.099,-5.404 z m 15.911,26.699 c 1.849,0.029 3.546,-0.165 5.192,0.175 0.411,1.593 0.49,3.644 0.224,5.151 -2.587,-0.353 -4.636,-2.289 -5.416,-5.326 m 41.229,2.641 c -0.163,-2.165 0.735,-8.929 1.333,-10.359 0.565,-0.098 1.141,-0.405 1.784,-0.006 0,0.275 0.022,0.516 -0.003,0.752 -0.254,2.318 -0.543,4.632 -0.764,6.952 -0.136,1.413 -0.948,2.153 -2.35,2.661 M 29.519,32.703 c 0.201,-1.094 0.757,-1.769 1.496,-2.39 2.543,-2.137 5.044,-4.326 7.569,-6.485 0.123,-0.106 0.319,-0.128 0.573,-0.224 0.056,0.291 0.155,0.52 0.131,0.738 -0.099,0.938 -0.414,1.819 -1.056,2.512 -0.707,0.764 -1.419,1.571 -2.273,2.145 -1.937,1.305 -3.961,2.48 -5.955,3.697 -0.084,0.052 -0.227,0.007 -0.485,0.007 M 8.185,52.792 C 7.975,52.687 7.836,52.662 7.767,52.578 6.26,50.783 4.931,48.863 3.806,46.808 3.514,46.273 3.266,45.692 3.138,45.102 3.08,44.833 3.366,44.491 3.558,44.037 c 0.643,0.386 1.228,0.624 1.665,1.023 1.092,0.996 2.223,1.923 3.585,2.507 0.039,0.321 0.109,0.565 0.089,0.801 -0.103,1.223 -0.212,2.445 -0.36,3.663 -0.032,0.263 -0.229,0.507 -0.352,0.761 m 13.211,-31.94 c 1.162,-0.309 1.162,-0.309 2.512,-0.075 0.768,1.724 1.217,3.609 1.702,5.481 -0.784,0.696 -1.648,0.74 -2.496,0.79 -0.595,0.036 -1.239,0.173 -1.792,-0.46 -0.008,-1.871 -0.106,-3.82 0.074,-5.736 m 23.572,41.896 c 1.065,0 2.008,0.123 2.902,-0.033 0.957,-0.167 1.864,-0.61 2.801,-0.905 0.406,-0.128 0.829,-0.231 1.251,-0.271 0.469,-0.044 0.818,0.563 0.5,0.903 -0.538,0.577 -1.106,1.164 -1.765,1.584 -2.515,1.605 -5.315,2.546 -8.176,3.32 -0.097,0.027 -0.224,-0.052 -0.337,-0.082 -0.021,-0.111 -0.097,-0.261 -0.052,-0.327 0.929,-1.371 1.871,-2.732 2.876,-4.189 m -15.116,85.164 c -0.041,0.614 -0.025,0.837 -0.076,1.044 -0.534,2.151 -1.069,4.303 -1.624,6.45 -0.573,2.22 -1.375,4.344 -2.762,6.202 -0.207,0.278 -0.35,0.666 -0.922,0.641 0,-0.22 -0.032,-0.446 0.005,-0.66 0.362,-2.059 0.774,-4.11 1.093,-6.176 0.258,-1.669 0.651,-3.234 1.953,-4.447 0.397,-0.37 0.639,-0.903 0.972,-1.346 0.361,-0.477 0.744,-0.937 1.361,-1.708 M -8.86,130.304 c -0.05,0.158 -0.05,0.31 -0.125,0.378 -1.914,1.716 -4.071,3.157 -5.779,5.113 -0.216,0.248 -0.652,0.46 -0.966,0.435 -0.538,-0.042 -1.067,-0.262 -1.584,-0.45 -0.496,-0.181 -1.06,-0.284 -1.414,-0.929 0.465,-0.405 0.895,-0.824 1.37,-1.183 1.124,-0.849 2.273,-1.663 3.402,-2.504 0.442,-0.33 0.83,-0.742 1.298,-1.025 0.348,-0.21 0.785,-0.378 1.183,-0.38 0.9,-0.005 1.809,0.063 2.615,0.545 M 12.138,35.918 c 1.873,-0.071 3.578,-0.02 5.283,0.062 0.16,0.008 0.313,0.149 0.519,0.253 -0.077,1.506 0.322,3.011 -0.053,4.637 -1.041,0 -2.016,0.04 -2.986,-0.012 -0.948,-0.051 -1.951,0.251 -2.878,-0.334 -0.17,-1.475 -0.221,-2.92 0.115,-4.606 m 14.158,-1.522 c -1.637,0.22 -3.192,0.292 -4.904,-0.065 -0.085,-1.673 -0.202,-3.291 0.018,-4.998 0.84,-0.084 1.623,-0.224 2.406,-0.222 0.787,0.002 1.478,-0.671 2.386,-0.268 0.44,1.805 0.788,3.631 0.094,5.553 m 3.706,111.213 c -0.567,1.232 -1.311,2.059 -1.945,2.957 -0.567,0.801 -1.28,1.268 -2.311,1.282 -2.28,0.032 -4.559,0.131 -6.839,0.185 -0.147,0.003 -0.299,-0.149 -0.47,-0.242 0.069,-0.215 0.084,-0.412 0.184,-0.544 0.811,-1.067 1.846,-1.817 3.178,-2.07 1.026,-0.195 2.073,-0.284 3.099,-0.484 1.621,-0.315 3.231,-0.683 5.104,-1.084 m -5.606,8.841 c 0,0.798 0.039,1.216 -0.006,1.624 -0.167,1.528 -0.354,3.054 -0.549,4.579 -0.11,0.855 -0.218,1.713 -0.396,2.555 -0.071,0.339 -0.258,0.721 -0.513,0.939 -0.933,0.793 -1.949,1.468 -3.264,1.837 -0.047,-0.343 -0.12,-0.571 -0.102,-0.792 0.218,-2.522 0.908,-4.961 1.358,-7.442 0.05,-0.273 0.262,-0.562 0.477,-0.753 0.872,-0.776 1.775,-1.516 2.995,-2.547 M 14.769,25.323 c 2.126,0.585 2.703,1.239 2.781,2.949 0.072,1.602 0.138,3.205 0.179,4.807 0.01,0.413 -0.086,0.828 -0.146,1.346 -0.622,0.048 -1.162,0.105 -1.703,0.124 -0.492,0.016 -0.988,0.015 -1.48,-0.023 -0.524,-0.041 -1.123,0.123 -1.576,-0.513 1.064,-2.721 1.857,-5.547 1.945,-8.69 M 82.576,152.89 c 1.587,-1.08 2.882,-1.908 4.116,-2.816 1.405,-1.033 2.781,-2.072 4.674,-1.836 0.059,0.008 0.124,-0.012 0.182,-0.032 1.367,-0.477 2.81,-0.319 4.214,-0.502 0.149,-0.019 0.316,0.092 0.475,0.143 -0.047,0.159 -0.043,0.303 -0.111,0.362 -0.896,0.756 -1.816,1.482 -2.7,2.251 -1.377,1.197 -2.872,2.029 -4.767,2.153 -1.894,0.125 -3.768,0.583 -6.083,0.277 M 7.774,25.515 7.429,25.474 C 7,24.066 6.611,22.646 6.125,21.259 5.86,20.504 5.934,19.836 6.199,19.115 7.05,16.802 7.864,14.476 8.702,12.158 c 0.119,-0.33 0.286,-0.643 0.519,-1.159 0.369,0.553 0.612,0.958 0.895,1.334 0.895,1.19 0.932,2.42 0.471,3.827 -0.86,2.633 -1.566,5.316 -2.345,7.976 -0.136,0.465 -0.31,0.92 -0.468,1.379 m 55.579,14.032 c 0.467,-0.901 1.084,-1.316 1.63,-1.774 2.612,-2.183 5.006,-4.584 7.195,-7.187 0.551,-0.655 0.991,-1.403 1.501,-2.095 0.17,-0.23 0.399,-0.418 0.653,-0.679 0.157,0.258 0.292,0.393 0.326,0.549 0.262,1.196 0.05,2.323 -0.508,3.404 -0.628,1.216 -1.506,2.247 -2.356,3.307 -0.923,1.152 -1.776,2.361 -2.646,3.555 -0.248,0.342 -0.444,0.721 -0.657,1.071 -1.673,0.237 -3.258,-0.091 -5.138,-0.151 m 25.245,114.035 c -3.778,3.464 -14.118,6.518 -20.134,5.667 0.157,-0.437 0.599,-0.388 0.912,-0.475 2.92,-0.818 5.708,-1.957 8.426,-3.294 0.762,-0.375 1.602,-0.659 2.438,-0.805 2.608,-0.456 5.23,-0.829 7.849,-1.221 0.15,-0.022 0.318,0.077 0.509,0.128 M 0.652,77.744 c -1.452,-1.552 -2.079,-3.03 -1.915,-4.618 0.165,-1.588 0.422,-3.158 0.988,-4.679 0.792,-2.132 1.447,-4.315 2.204,-6.461 0.323,-0.917 0.649,-1.85 1.304,-2.685 0.871,0.45 1.195,1.229 1.559,1.986 -1.21,2.567 -2.198,5.166 -2.761,7.879 -0.57,2.754 -0.904,5.557 -1.379,8.578 m -5.218,44.254 c 0.348,-0.112 0.574,-0.256 0.787,-0.24 1.42,0.105 2.807,0.351 4.122,0.95 2.993,1.363 5.322,3.54 7.427,5.996 0.107,0.125 0.118,0.333 0.202,0.586 -0.381,0.104 -0.724,0.265 -1.074,0.281 -1.109,0.049 -2.221,0.025 -3.332,0.067 -0.67,0.025 -1.162,-0.23 -1.621,-0.709 -1.962,-2.052 -3.953,-4.076 -5.924,-6.118 -0.2,-0.207 -0.341,-0.468 -0.587,-0.813 m 94.171,13.082 c 0.237,3.544 0.475,6.974 0.677,10.406 0.016,0.265 -0.152,0.627 -0.356,0.803 -0.92,0.794 -1.845,1.597 -3.121,2.15 -0.088,-0.508 -0.203,-0.909 -0.219,-1.313 -0.246,-6.256 -0.177,-10.279 0.196,-11.611 0.812,-0.381 1.653,-0.724 2.823,-0.435 M 36.552,68.496 c -3.796,0.386 -8.689,-0.588 -10.389,-2.05 0.278,-0.035 0.519,-0.08 0.762,-0.094 2.562,-0.146 4.94,-0.908 7.194,-2.111 1.194,-0.638 2.39,-1.278 3.619,-1.841 0.777,-0.356 1.609,-0.596 2.43,-0.839 0.25,-0.074 0.548,0.016 0.986,0.04 -1.079,2.141 -2.79,3.66 -3.645,5.711 -0.07,0.167 -0.197,0.312 -0.316,0.454 -0.195,0.236 -0.404,0.461 -0.641,0.73 m -20.399,45.96 c -2.623,-0.6 -4.83,-1.794 -6.999,-3.073 C 8.508,111.001 8.232,110.467 8.182,109.726 7.953,106.351 7.688,102.978 7.453,99.604 7.425,99.208 7.5,98.807 7.535,98.3 c 0.705,0.324 0.867,0.87 1.058,1.363 0.773,2.006 1.532,4.019 2.275,6.037 1.051,2.855 2.513,5.471 4.473,7.803 0.268,0.319 0.541,0.635 0.812,0.953 M -15.118,95.333 c -0.064,-0.385 -0.121,-0.623 -0.14,-0.863 -0.133,-1.719 -0.84,-3.194 -1.86,-4.555 -0.479,-0.641 -0.897,-1.328 -1.321,-2.007 -0.596,-0.955 -0.959,-2.004 -1.115,-3.114 -0.174,-1.252 0.213,-2.283 1.344,-3.11 0.216,0.297 0.433,0.515 0.557,0.777 0.524,1.11 0.958,2.267 1.538,3.345 1.609,2.991 3.541,5.778 5.563,8.503 0.323,0.435 0.724,0.827 0.803,1.384 -0.146,0.096 -0.243,0.217 -0.333,0.211 -1.411,-0.093 -2.82,-0.195 -4.23,-0.317 -0.234,-0.02 -0.46,-0.142 -0.806,-0.254 M 32.267,21.038 C 31.91,20.667 31.635,20.441 31.435,20.161 30.754,19.212 30.119,18.23 29.432,17.287 28.35,15.801 27.451,14.184 26.126,12.868 25.567,12.314 25.158,11.596 24.755,10.909 24.585,10.62 24.491,10.194 24.561,9.874 c 0.287,-1.333 0.862,-2.528 1.956,-3.558 0.255,0.276 0.485,0.466 0.644,0.705 1.125,1.682 2.223,3.384 3.356,5.062 0.826,1.223 1.712,2.404 2.531,3.631 0.227,0.34 0.5,0.812 0.43,1.16 -0.273,1.361 -0.527,2.745 -1.211,4.164 M 36.892,7.79 c 0,-0.464 -0.05,-0.869 0.009,-1.259 0.185,-1.215 0.465,-2.418 0.608,-3.636 0.323,-2.748 0.603,-5.499 0.863,-8.252 0.073,-0.788 0.007,-1.586 0.024,-2.379 0.018,-0.842 0.015,-1.69 0.322,-2.487 0.691,0.023 1.113,0.365 1.451,0.82 0.601,0.81 0.943,1.705 0.922,2.737 -0.027,1.291 0.015,2.583 -0.008,3.874 -0.023,1.259 0.238,2.437 0.828,3.551 0.282,0.533 0.502,1.098 0.72,1.581 -0.944,1.302 -4.435,4.613 -5.739,5.45 M -9.976,92.693 c -0.318,-0.267 -0.528,-0.38 -0.649,-0.554 -0.843,-1.217 -1.699,-2.426 -2.489,-3.677 -1.151,-1.821 -2.272,-3.662 -3.355,-5.523 -0.327,-0.562 -0.77,-1.136 -0.585,-1.87 2.394,-1.231 5.146,-0.896 8.11,1.043 -0.317,3.411 -0.565,6.9 -1.032,10.581 m 28.197,73.799 c -0.377,0.114 -0.548,0.182 -0.726,0.218 -2.526,0.514 -5.103,0.748 -7.605,1.42 -0.751,0.203 -1.589,0.163 -2.38,0.12 -0.878,-0.047 -1.62,-0.447 -2.288,-1.266 0.623,-0.34 1.117,-0.719 1.674,-0.891 1.43,-0.443 2.685,-1.219 3.975,-1.932 2.482,-1.371 4.844,-2.926 7.124,-4.608 0.33,-0.243 0.715,-0.411 1.245,-0.71 -0.199,2.687 -0.183,5.192 -1.019,7.649 M 10.901,35.921 C 10.353,36.02 10.375,35.508 10.289,35.228 9.713,33.347 9.201,31.445 8.62,29.565 8.372,28.765 8.406,28.01 8.637,27.223 c 0.675,-2.301 1.325,-4.609 1.989,-6.912 0.289,-1.003 0.578,-2.006 0.89,-3.002 0.08,-0.257 0.088,-0.642 0.603,-0.544 0.084,0.195 0.195,0.412 0.274,0.639 1.011,2.96 1.231,6.011 1.024,9.108 -0.099,1.474 -0.28,2.937 -0.771,4.345 -0.586,1.68 -1.16,3.365 -1.745,5.064 M 5.209,17.876 C 4.884,17.179 4.691,16.817 4.542,16.438 3.688,14.269 2.858,12.088 1.99,9.924 1.693,9.185 1.334,8.467 0.957,7.765 0.526,6.963 0.382,6.183 0.75,5.301 1.08,4.51 1.291,3.67 1.576,2.859 1.672,2.587 1.831,2.338 1.974,2.056 2.231,2.168 2.432,2.2 2.551,2.315 4.592,4.289 6.335,6.507 7.928,8.851 8.285,9.376 8.196,9.876 8.001,10.422 7.278,12.446 6.581,14.479 5.86,16.504 5.739,16.845 5.552,17.161 5.209,17.876 m 39.523,32.636 c 0.01,-0.186 -0.021,-0.372 0.036,-0.527 1.156,-3.181 2.305,-6.366 3.5,-9.533 0.323,-0.859 0.724,-1.704 1.206,-2.484 0.754,-1.223 1.784,-2.196 3.086,-2.843 0.256,-0.127 0.559,-0.161 0.865,-0.245 0.05,1.651 -0.856,9.271 -1.317,11.226 -2.583,2 -6.029,4.067 -7.376,4.406 M 84.53,28.29 c 0.776,0.197 1.264,0.675 1.723,1.165 0.685,0.731 0.727,1.561 0.085,2.325 -0.351,0.417 -0.78,0.798 -1.242,1.082 -0.731,0.449 -1.497,0.855 -2.287,1.189 -3.474,1.465 -7.15,2.227 -10.812,3.027 -0.253,0.056 -0.539,-0.038 -1.016,-0.082 0.379,-0.514 0.614,-0.856 0.874,-1.18 0.618,-0.764 1.426,-1.435 1.834,-2.296 0.855,-1.807 2.258,-2.543 4.134,-2.903 2.353,-0.451 4.579,-1.373 6.707,-2.327 m 6.841,118.583 c 1.727,-1.434 3.203,-2.618 4.632,-3.858 1.393,-1.209 2.765,-2.445 4.092,-3.725 1.372,-1.323 2.676,-2.717 4.015,-4.073 1.318,-1.334 2.298,-2.965 3.668,-4.337 0.615,0.751 0.61,1.501 0.33,2.191 -0.482,1.19 -0.946,2.421 -1.648,3.482 -2.282,3.446 -5.052,6.502 -7.938,9.451 -0.449,0.459 -0.966,0.699 -1.604,0.812 -1.71,0.305 -3.415,0.255 -5.547,0.057 M 17.26,116.498 c -0.343,0.162 -0.401,0.214 -0.454,0.21 -0.919,-0.067 -1.837,-0.153 -2.757,-0.213 -5.716,-0.373 -11.164,-1.797 -16.337,-4.238 -1.388,-0.655 -2.709,-1.455 -4.034,-2.234 -0.326,-0.192 -0.793,-0.409 -0.612,-1.025 0.418,0 0.85,-0.042 1.27,0.007 2.443,0.291 4.884,0.605 7.326,0.907 0.671,0.083 1.348,0.233 2.017,0.208 1.241,-0.046 2.238,0.419 3.244,1.101 2.909,1.975 5.921,3.772 9.34,4.762 0.273,0.079 0.517,0.263 0.997,0.515 m -25.416,-8.543 c 0.078,-0.55 0.089,-0.854 0.17,-1.138 0.151,-0.531 0.379,-1.043 0.511,-1.577 0.355,-1.428 0.027,-2.065 -1.331,-2.589 -0.456,-0.175 -0.947,-0.257 -1.417,-0.397 -1.175,-0.349 -2.355,-0.685 -3.519,-1.068 -0.783,-0.259 -1.419,-0.75 -1.793,-1.501 -0.119,-0.24 -0.106,-0.545 -0.173,-0.933 1.554,0.011 2.925,0.308 4.299,0.578 1.386,0.273 2.763,0.6 4.159,0.798 1.084,0.154 1.964,0.537 2.729,1.351 2.231,2.38 4.55,4.672 7.095,6.724 0.155,0.125 0.235,0.34 0.435,0.642 -3.795,-0.182 -7.404,-0.24 -11.165,-0.89 M 24.343,11.969 c 0.753,0.729 1.161,1.411 1.593,2.072 1.006,1.542 1.99,3.101 3.011,4.633 0.751,1.126 1.538,2.227 2.328,3.327 0.387,0.538 0.538,1.078 0.284,1.726 -0.27,0.686 -0.48,1.395 -0.729,2.09 -0.746,2.084 -1.489,4.169 -2.261,6.245 -0.128,0.344 -0.189,0.814 -0.799,0.971 -0.071,-0.964 -0.124,-1.809 -0.196,-2.654 -0.233,-2.788 -1.212,-5.392 -2.01,-8.038 -0.746,-2.478 -1.402,-4.973 -1.491,-7.576 -0.028,-0.842 -0.137,-1.702 0.27,-2.796 M 73.64,26.944 c -0.499,0.582 -0.859,0.98 -1.195,1.397 -4.044,5.033 -8.807,9.308 -13.936,13.195 -0.22,0.167 -0.508,0.243 -0.807,0.381 -0.098,-1.746 0.459,-6.436 0.932,-7.981 0.219,-0.042 0.456,-0.112 0.697,-0.131 1.761,-0.141 3.384,-0.702 4.844,-1.678 1.126,-0.752 2.188,-1.598 3.291,-2.386 1.202,-0.86 2.412,-1.709 3.63,-2.548 0.695,-0.478 1.453,-0.628 2.544,-0.249 M 3.704,18.209 C 2.95,18.116 2.526,17.639 2.021,17.332 1.496,17.013 1.001,16.644 0.48,16.316 -0.561,15.663 -1.604,15.015 -2.658,14.381 -3.225,14.041 -3.479,13.566 -3.641,12.915 -3.978,11.546 -4.409,10.194 -4.885,8.865 -5.443,7.303 -6.122,5.782 -6.686,4.221 -6.933,3.533 -7.122,2.796 -7.16,2.071 -7.2,1.304 -7.214,0.457 -6.438,-0.066 c 1.042,0.564 1.721,1.05 2.174,1.706 0.91,1.315 1.826,2.63 2.659,3.993 2.26,3.701 3.763,7.746 5.229,11.803 0.077,0.21 0.051,0.459 0.08,0.773 m 88.04,126.433 c -0.086,-0.153 -0.238,-0.303 -0.249,-0.462 -0.192,-2.884 -0.372,-5.768 -0.536,-8.654 -0.013,-0.225 0.109,-0.458 0.179,-0.72 0.745,-0.297 1.49,-0.24 2.212,-0.2 3.516,0.195 6.677,-0.804 9.588,-2.735 0.817,-0.542 1.689,-1.005 2.546,-1.486 0.256,-0.144 0.54,-0.323 0.844,-0.073 -0.729,1.551 -2.708,3.881 -6.628,7.807 -3.016,3.021 -6.379,5.781 -7.956,6.523 M -34.189,122.383 c 0.199,0 0.398,-0.057 0.54,0.009 1.228,0.573 2.443,1.174 3.668,1.754 1.056,0.5 2.096,1.048 3.186,1.461 3.925,1.489 7.961,2.603 12.074,3.44 0.274,0.056 0.528,0.206 1.131,0.451 -2.466,1.561 -4.114,3.665 -6.282,5.064 -0.302,-0.107 -0.485,-0.148 -0.645,-0.233 -3.495,-1.867 -6.76,-4.073 -9.653,-6.784 -1.166,-1.091 -2.209,-2.317 -3.26,-3.525 -0.38,-0.437 -0.803,-0.914 -0.759,-1.637 m 19.961,14.141 c 0.337,-0.314 0.662,-0.663 1.031,-0.952 1.065,-0.835 2.16,-1.632 3.222,-2.47 0.774,-0.61 1.557,-1.219 2.255,-1.91 0.588,-0.582 1.238,-0.759 2.013,-0.662 0.977,0.122 1.95,0.311 2.931,0.356 3.13,0.146 6.263,0.656 9.397,0.011 0.184,-0.038 0.514,-0.113 0.527,0.424 -2.045,1.225 -4.142,2.496 -6.253,3.742 -2.48,1.465 -5.174,2.299 -8.027,2.606 -2.363,0.254 -4.656,-0.135 -6.893,-0.898 -0.049,-0.017 -0.079,-0.092 -0.203,-0.247 M 16.74,98.495 C 16.465,98.462 16.268,98.49 16.125,98.414 14.132,97.355 12.543,95.809 11.101,94.112 10.854,93.824 10.8,93.324 10.769,92.913 c -0.12,-1.551 0.221,-3.049 0.514,-4.563 0.597,-3.087 1.282,-6.148 2.322,-9.119 0.149,-0.425 0.144,-1.009 0.82,-1.177 1.67,1.164 2.423,2.88 2.59,4.845 0.109,1.282 0.068,2.592 -0.053,3.876 -0.203,2.144 -0.546,4.276 -0.782,6.418 -0.074,0.662 -0.05,1.349 0.03,2.013 0.13,1.081 0.343,2.153 0.53,3.289 m 8.54,52.668 c -0.127,0.833 -0.628,1.133 -1.002,1.509 -3.76,3.779 -8.063,6.841 -12.612,9.591 -1.999,1.209 -4.168,2.125 -6.048,3.54 -0.223,0.169 -0.564,0.183 -0.863,0.273 -0.58,-0.691 -0.537,-1.367 -0.25,-2.11 0.869,-2.252 2.441,-3.809 4.634,-4.761 0.789,-0.343 1.6,-0.633 2.401,-0.95 2.165,-0.857 3.737,-2.333 4.678,-4.47 0.174,-0.395 0.397,-0.772 0.527,-1.179 0.278,-0.877 0.82,-1.272 1.765,-1.288 1.847,-0.029 3.692,-0.154 5.539,-0.225 0.36,-0.014 0.722,0.039 1.231,0.07 M 9.378,36.655 C 9.305,36.705 9.232,36.756 9.16,36.807 8.991,36.64 8.818,36.478 8.655,36.306 6.644,34.194 4.351,32.429 1.931,30.816 1.316,30.407 0.716,29.968 0.147,29.497 c -1.57,-1.3 -2.676,-2.926 -3.043,-4.942 -0.285,-1.572 -0.41,-3.172 -0.571,-4.764 -0.034,-0.34 0.083,-0.694 0.132,-1.049 0.73,-0.028 1.131,0.382 1.557,0.698 2.423,1.802 4.834,3.622 7.249,5.435 0.05,0.037 0.117,0.06 0.149,0.106 0.236,0.347 0.567,0.667 0.68,1.052 1.048,3.534 2.057,7.079 3.078,10.622 M -2.104,72.444 c -0.291,-0.29 -0.408,-0.36 -0.455,-0.462 -1.467,-3.2 -2.71,-6.489 -3.569,-9.902 -0.344,-1.365 -0.463,-2.796 -0.564,-4.205 -0.057,-0.786 0.038,-1.613 0.233,-2.378 0.309,-1.211 0.995,-1.6 2.212,-1.411 0.363,0.056 0.722,0.166 1.073,0.28 1.735,0.56 3.237,1.512 4.554,2.757 0.303,0.286 0.533,0.648 0.807,0.988 -0.66,1.604 -1.302,3.138 -1.922,4.68 -0.599,1.491 -1.051,3.015 -1.295,4.618 -0.247,1.623 -0.678,3.218 -1.074,5.035 m -31.618,48.712 c 1.446,0.314 2.598,0.492 3.704,0.823 1.361,0.408 2.683,0.269 4.015,-0.037 0.54,-0.124 1.066,-0.307 1.598,-0.463 2.447,-0.713 4.857,-0.712 7.218,0.353 0.787,0.355 1.575,0.711 2.377,1.026 1.781,0.7 3.558,1.451 5.545,1.106 0.562,-0.097 0.952,0.168 1.303,0.534 1.196,1.244 2.393,2.489 3.575,3.747 0.192,0.204 0.313,0.474 0.545,0.836 -0.946,0.247 -1.728,0.125 -2.496,0.002 -2.433,-0.389 -4.869,-0.764 -7.29,-1.225 -4.916,-0.935 -9.715,-2.301 -14.392,-4.092 -0.517,-0.198 -1.032,-0.44 -1.57,-0.538 -1.238,-0.225 -2.312,-0.827 -3.418,-1.359 -0.192,-0.093 -0.323,-0.314 -0.714,-0.713 M 43.185,3.964 c 0.211,0.365 0.321,0.516 0.39,0.684 0.071,0.169 0.113,0.352 0.146,0.532 0.357,2.01 0.053,3.938 -0.871,5.739 -0.673,1.311 -1.388,2.616 -2.227,3.824 -1.173,1.688 -1.831,3.475 -1.601,5.54 0.096,0.863 -0.186,1.556 -0.834,2.135 -2.063,1.846 -4.112,3.708 -6.178,5.552 -0.145,0.128 -0.382,0.152 -0.748,0.289 0.109,-0.438 0.151,-0.67 0.224,-0.891 0.563,-1.692 1.158,-3.375 1.694,-5.076 1.074,-3.405 2.028,-6.845 2.692,-10.355 0.203,-1.073 0.658,-1.927 1.494,-2.666 1.614,-1.425 3.146,-2.945 4.72,-4.417 0.305,-0.284 0.647,-0.527 1.099,-0.89 m 7.725,30.993 c -0.055,0.203 -0.048,0.35 -0.117,0.412 -1.252,1.127 -2.279,2.419 -2.982,3.959 -0.227,0.497 -0.628,0.723 -1.173,0.751 -2.587,0.134 -5.172,0.286 -7.758,0.42 -1.171,0.061 -2.342,0.115 -3.514,0.136 -4.44,0.078 -8.881,0.143 -13.321,0.201 -0.217,0.003 -0.435,-0.111 -0.686,-0.181 0.093,-0.14 0.116,-0.217 0.158,-0.228 0.168,-0.048 0.348,-0.125 0.513,-0.105 1.959,0.236 3.324,-0.618 4.278,-2.272 0.214,-0.373 0.498,-0.706 0.717,-1.077 0.445,-0.753 1.063,-1.151 1.963,-1.148 0.801,0.004 1.602,-0.078 2.403,-0.11 3.205,-0.129 6.41,-0.235 9.614,-0.386 2.71,-0.128 5.417,-0.315 8.126,-0.457 0.587,-0.031 1.195,-0.134 1.779,0.085 M 33.988,14.518 c -1.074,-1.05 -6.123,-7.891 -6.664,-9.021 0.221,-0.24 0.453,-0.515 0.71,-0.767 2.992,-2.937 5.043,-6.34 5.488,-10.615 0.107,-1.02 0.488,-2.046 0.917,-2.989 0.564,-1.235 1.636,-1.732 3.049,-1.621 0.272,0.97 0.172,1.897 0.076,2.8 -0.225,2.144 -0.58,4.275 -0.78,6.422 -0.46,4.92 -1.351,9.768 -2.374,14.595 -0.083,0.392 -0.265,0.762 -0.422,1.196 m 33.976,26.373 c -0.438,1.228 -0.816,2.329 -1.223,3.419 -0.193,0.518 -0.423,1.025 -0.671,1.521 -1.487,2.975 -3.951,4.454 -7.222,4.689 -0.739,0.052 -1.476,0.122 -2.215,0.172 -2.057,0.138 -4.015,0.616 -5.82,1.65 -0.426,0.245 -0.896,0.414 -1.332,0.645 -1.076,0.572 -2.22,0.718 -3.412,0.568 -0.611,-0.077 -1.222,-0.172 -1.825,-0.298 -0.193,-0.041 -0.359,-0.211 -0.635,-0.382 0.664,-0.602 1.317,-0.934 1.958,-1.291 1.237,-0.688 2.496,-1.345 3.679,-2.118 3.819,-2.498 7.608,-5.044 11.161,-7.915 0.656,-0.53 1.34,-0.809 2.193,-0.8 0.982,0.009 1.965,-0.107 2.95,-0.135 0.726,-0.02 1.469,-0.119 2.414,0.275 m 17.151,95.441 c 0.076,0.395 0.14,0.574 0.143,0.754 0.046,3.76 0.067,7.52 0.138,11.28 0.016,0.909 -0.345,1.476 -1.097,1.948 -4.236,2.662 -8.574,5.123 -13.278,6.878 -1.664,0.621 -3.375,1.058 -5.475,1.337 1.564,-1.574 2.888,-2.93 4.236,-4.259 1.413,-1.392 2.977,-2.571 4.763,-3.467 1.742,-0.873 3.18,-2.143 4.173,-3.826 0.718,-1.215 1.341,-2.492 1.92,-3.78 0.53,-1.179 0.904,-2.427 1.42,-3.613 0.594,-1.369 1.411,-2.57 3.057,-3.252 M -7.514,82.945 c 1.537,0.779 2.53,2.015 3.311,3.417 0.477,0.857 0.791,1.804 1.183,2.709 0.416,0.96 0.781,1.949 1.274,2.868 0.669,1.246 1.724,2.079 3.101,2.467 0.356,0.101 0.715,0.192 1.077,0.267 0.626,0.13 0.948,0.535 1.058,1.136 0.056,0.303 0.099,0.609 0.132,0.915 0.373,3.434 0.746,6.868 1.108,10.303 0.03,0.285 0.13,0.624 -0.226,0.808 -0.068,0.004 -0.137,0.03 -0.184,0.009 -0.166,-0.076 -0.343,-0.145 -0.484,-0.258 -4.501,-3.606 -8.492,-7.714 -12.074,-12.229 -0.412,-0.519 -0.584,-1.067 -0.527,-1.712 0.039,-0.43 0.059,-0.862 0.098,-1.292 0.214,-2.396 0.428,-4.792 0.648,-7.188 0.068,-0.725 0.072,-1.468 0.505,-2.22 m 13.2,-20.097 c 0.244,0.443 0.49,0.781 0.627,1.158 0.551,1.507 0.892,3.067 1.141,4.65 0.209,1.335 0.44,2.667 0.706,3.991 0.275,1.359 1.124,2.299 2.321,2.943 0.488,0.263 1.001,0.481 1.474,0.767 0.354,0.213 0.66,0.503 1.023,0.786 -0.495,1.533 -1.002,2.98 -1.424,4.452 -0.695,2.423 -1.384,4.845 -1.416,7.406 -0.013,1.028 -0.117,2.078 -0.474,3.193 C 9.399,92.005 9.166,91.907 9.031,91.733 6.278,88.17 3.871,84.381 1.719,80.43 1.523,80.071 1.391,79.603 1.429,79.204 c 0.145,-1.529 0.33,-3.057 0.582,-4.571 0.191,-1.148 0.511,-2.275 0.766,-3.412 0.498,-2.222 1.036,-4.434 1.849,-6.566 0.23,-0.606 0.372,-1.283 1.06,-1.807 M -43.813,28.186 c 3.368,1.607 6.757,2.529 10.19,3.281 5.787,1.268 11.638,2.142 17.54,2.669 1.535,0.136 3.066,0.312 4.602,0.441 2.641,0.223 5.281,0.467 7.926,0.62 3.14,0.183 6.284,0.294 9.428,0.405 0.731,0.025 1.338,0.252 1.784,0.81 0.883,1.105 1.745,2.227 2.59,3.361 0.164,0.22 0.209,0.529 0.345,0.89 -0.374,0.064 -0.607,0.144 -0.835,0.135 -3.698,-0.137 -7.399,-0.248 -11.094,-0.443 -2.708,-0.141 -5.412,-0.376 -8.115,-0.602 -3.194,-0.268 -6.392,-0.502 -9.574,-0.877 -3.302,-0.391 -6.594,-0.884 -9.876,-1.421 -3.65,-0.598 -7.27,-1.366 -10.77,-2.583 -1.449,-0.504 -2.855,-1.154 -4.23,-1.838 -0.588,-0.292 -1.112,-0.784 -1.552,-1.285 -0.62,-0.706 -0.609,-1.469 0.022,-2.177 0.442,-0.495 1.012,-0.876 1.619,-1.386 M 4.34,34.025 c -0.643,0.052 -1.047,0.127 -1.446,0.109 -1.971,-0.094 -3.94,-0.244 -5.912,-0.316 -5.18,-0.187 -10.333,-0.733 -15.478,-1.299 -4.038,-0.446 -8.051,-1.131 -12.063,-1.787 -3.164,-0.515 -6.278,-1.274 -9.32,-2.292 -0.614,-0.206 -1.306,-0.305 -1.883,-0.956 0.569,-0.239 1.049,-0.478 1.553,-0.646 4.34,-1.447 8.821,-2.285 13.319,-3.045 5.172,-0.872 10.392,-1.361 15.601,-1.933 1.716,-0.188 3.442,-0.276 5.166,-0.387 0.545,-0.036 1.119,-0.102 1.614,0.372 0.315,1.394 0.642,2.832 0.951,4.273 0.016,0.076 -0.117,0.185 -0.193,0.297 -0.656,0.082 -0.954,-0.466 -1.342,-0.822 -1.035,-0.954 -2.204,-1.025 -3.441,-0.542 -0.512,0.199 -0.981,0.513 -1.464,0.785 -0.377,0.211 -0.731,0.464 -1.121,0.646 -0.607,0.285 -1.051,0.143 -1.428,-0.41 -0.103,-0.151 -0.166,-0.331 -0.267,-0.485 -0.801,-1.213 -1.773,-1.607 -3.166,-1.204 -0.707,0.204 -1.379,0.53 -2.074,0.783 -0.921,0.334 -1.85,0.641 -2.792,0.431 -0.084,-0.153 -0.134,-0.201 -0.137,-0.253 -0.028,-0.551 0.044,-1.211 -0.71,-1.295 -0.637,-0.071 -0.948,0.473 -1.251,0.942 -0.033,0.052 -0.053,0.112 -0.078,0.167 -0.454,0.99 -0.087,1.904 0.995,2.14 0.766,0.166 1.599,0.208 2.375,0.103 1.029,-0.138 2.042,-0.445 3.045,-0.736 0.537,-0.156 1.042,-0.387 1.642,-0.111 0.087,0.118 0.209,0.255 0.301,0.409 0.919,1.553 1.774,2.008 3.489,1.704 0.59,-0.105 1.159,-0.389 1.709,-0.652 0.497,-0.239 0.95,-0.568 1.432,-0.843 0.643,-0.367 1.252,-0.455 1.837,0.157 0.777,0.816 1.761,1.082 2.869,0.972 0.302,-0.03 0.609,-0.005 0.736,-0.005 1.19,1.046 2.232,1.999 3.313,2.904 1.104,0.924 2.503,1.485 3.619,2.825 m 71.562,-4.347 c -0.206,-0.673 -0.355,-1.138 -0.489,-1.608 -0.517,-1.803 -2.572,-2.492 -4.031,-1.857 -0.787,0.342 -1.551,0.768 -2.259,1.255 -1.117,0.767 -2.163,1.639 -3.269,2.426 -0.904,0.641 -1.838,1.242 -2.785,1.82 -0.581,0.355 -1.227,0.522 -1.923,0.591 -3.375,0.333 -6.739,0.82 -10.121,1.044 -6.463,0.426 -12.937,0.714 -19.408,1.049 -0.338,0.018 -0.68,-0.043 -1.341,-0.09 0.504,-0.436 0.74,-0.697 1.026,-0.876 0.887,-0.558 1.802,-1.074 2.694,-1.624 1.524,-0.943 2.986,-1.96 4.299,-3.197 1.633,-1.538 2.458,-3.351 2.246,-5.617 -0.05,-0.532 -0.194,-1.107 0.245,-1.67 0.589,-0.287 1.272,-0.147 1.935,-0.112 9.93,0.523 19.809,1.51 29.585,3.382 3.271,0.626 6.512,1.379 9.64,2.552 0.27,0.101 0.608,0.128 0.58,0.639 -2.086,0.816 -4.216,1.57 -6.624,1.893 M 46.737,41.474 c -0.042,0.244 -0.051,0.548 -0.149,0.821 -0.703,1.971 -1.396,3.946 -2.153,5.896 -0.356,0.914 -0.807,1.798 -1.289,2.654 -0.754,1.343 -1.87,2.207 -3.392,2.649 -1.89,0.548 -3.722,1.293 -5.592,1.91 -2.042,0.674 -4.087,1.349 -6.157,1.928 -1.388,0.388 -2.803,0.316 -4.177,-0.209 -1.38,-0.529 -2.211,-1.318 -2.21,-2.987 0.001,-3.694 -0.184,-7.388 -0.277,-11.083 -0.007,-0.283 0.114,-0.571 0.159,-0.779 0.234,-0.102 0.344,-0.19 0.455,-0.192 7.947,-0.152 15.895,-0.277 23.827,-0.844 0.239,-0.017 0.486,0.043 0.727,0.078 0.05,0.008 0.094,0.062 0.228,0.158 M 42.386,-5.369 c 0.888,-0.458 1.625,-0.479 2.367,-0.425 3.322,0.244 6.653,0.4 9.962,0.763 4.532,0.496 9.056,1.087 13.566,1.752 3.959,0.584 7.883,1.381 11.708,2.591 1.88,0.593 3.746,1.228 5.39,2.367 0.974,0.674 1.464,1.503 1.438,2.785 -0.084,4.129 -0.033,8.262 -0.034,12.392 -0.001,3.392 0.003,6.783 -0.01,10.174 -10e-4,0.336 0.139,0.763 -0.402,0.964 -0.662,-0.364 -1.348,-0.767 -2.057,-1.127 -2.882,-1.461 -5.981,-2.294 -9.108,-3.008 -2.28,-0.521 -4.611,-0.828 -6.881,-1.387 -2.945,-0.727 -5.945,-1.02 -8.942,-1.361 -1.591,-0.18 -3.187,-0.331 -4.782,-0.47 -2.64,-0.232 -5.28,-0.454 -7.921,-0.66 -1.966,-0.152 -3.936,-0.269 -5.904,-0.411 -0.113,-0.008 -0.22,-0.092 -0.437,-0.188 -0.026,-0.292 -0.159,-0.672 -0.07,-0.989 0.197,-0.704 0.434,-1.415 0.786,-2.052 0.563,-1.025 1.286,-1.962 1.843,-2.989 C 43.515,12.218 44.132,11.063 44.55,9.85 45.41,7.352 45.336,4.896 43.893,2.564 43.376,1.73 42.954,0.826 42.583,-0.084 42.332,-0.702 42.114,-1.387 42.11,-2.042 42.104,-3.141 42.282,-4.24 42.386,-5.369 m -88.041,33.03 c -0.032,-0.792 -0.076,-1.394 -0.076,-1.997 -0.005,-6.785 -0.004,-13.57 -0.003,-20.355 0,-0.309 0.015,-0.618 0.003,-0.926 -0.042,-1.088 0.419,-1.944 1.322,-2.488 0.998,-0.602 2.014,-1.232 3.106,-1.608 2.152,-0.742 4.336,-1.429 6.553,-1.938 5.23,-1.205 10.539,-1.987 15.867,-2.627 6.251,-0.751 12.529,-1.188 18.812,-1.538 4.065,-0.228 8.138,-0.387 12.21,-0.425 6.17,-0.059 12.341,0.012 18.511,0.04 0.539,0.002 1.079,0.095 1.612,0.144 0.063,0.286 0.151,0.466 0.133,0.633 -0.157,1.358 -0.508,2.662 -1.106,3.897 -1.088,2.247 -2.512,4.241 -4.428,5.862 -2.07,1.752 -3.237,3.977 -3.658,6.651 -0.271,1.727 -0.292,3.433 -0.046,5.156 0.136,0.951 0.373,1.902 0.199,2.947 -0.381,0.037 -0.682,0.109 -0.977,0.088 -2.217,-0.16 -4.432,0.042 -6.648,0.031 C 14.231,19.2 14.22,19.196 13.823,17.798 13.281,15.891 12.525,14.08 11.549,12.351 10.029,9.658 8.278,7.127 6.363,4.703 4.942,2.905 3.373,1.255 1.618,-0.216 c -1.286,-1.078 -2.673,-1.98 -4.315,-2.443 -0.807,-0.228 -1.574,-0.192 -2.356,0.097 -2.062,0.764 -3.28,2.54 -3.105,4.733 0.067,0.85 0.285,1.706 0.565,2.515 0.444,1.28 0.941,2.549 1.515,3.776 1.534,3.277 2.006,6.705 1.621,10.278 -0.107,0.998 -0.247,1.171 -1.23,1.223 -4.126,0.22 -8.233,0.649 -12.341,1.085 -4.479,0.474 -8.929,1.119 -13.35,1.963 -3.275,0.624 -6.53,1.342 -9.642,2.563 -1.485,0.583 -2.916,1.307 -4.635,2.087 m 11.388,-35.908 c 0.052,-0.506 0.042,-0.745 0.104,-0.966 0.512,-1.839 1.032,-3.677 1.559,-5.513 1.976,-6.874 3.958,-13.746 5.93,-20.622 1.171,-4.087 2.351,-8.172 3.475,-12.271 0.431,-1.574 1.291,-2.788 2.643,-3.652 0.83,-0.531 1.687,-1.029 2.569,-1.466 2.832,-1.407 5.858,-2.261 8.913,-3.014 2.271,-0.56 4.536,-1.192 6.842,-1.552 3.467,-0.541 6.961,-0.962 10.458,-1.266 3.807,-0.331 7.628,-0.579 11.449,-0.66 2.831,-0.059 5.67,0.179 8.502,0.337 2.154,0.121 4.314,0.245 6.455,0.51 3.79,0.469 7.575,0.984 11.32,1.76 3.381,0.7 6.747,1.463 9.962,2.73 1.599,0.631 3.146,1.426 4.638,2.281 1.55,0.888 2.522,2.223 2.993,4.031 0.979,3.754 2.134,7.463 3.21,11.191 1.333,4.619 2.693,9.23 3.979,13.862 1.037,3.735 1.985,7.494 2.953,11.248 0.067,0.261 -0.03,0.566 -0.06,0.987 -0.604,-0.145 -1.077,-0.234 -1.537,-0.371 -2.069,-0.614 -4.126,-1.275 -6.204,-1.858 -4.279,-1.204 -8.623,-2.123 -12.995,-2.896 -2.67,-0.472 -5.356,-0.862 -8.044,-1.21 -1.895,-0.244 -3.804,-0.378 -5.709,-0.519 -3.075,-0.229 -6.151,-0.552 -9.229,-0.603 -5.428,-0.09 -10.861,-0.238 -16.283,0.284 -2.454,0.237 -4.931,0.251 -7.381,0.519 -3.43,0.373 -6.845,0.884 -10.265,1.344 -4.464,0.602 -8.874,1.514 -13.261,2.511 -4.814,1.094 -9.571,2.41 -14.244,4.013 -0.811,0.278 -1.642,0.5 -2.742,0.831 m 52.574,56.618 c 0.112,1.352 0.232,2.633 0.322,3.916 0.077,1.108 0.103,2.22 0.185,3.328 0.052,0.69 -0.205,1.196 -0.776,1.558 -0.208,0.132 -0.415,0.267 -0.632,0.383 -0.758,0.402 -1.251,0.372 -1.804,-0.29 C 15.175,56.754 14.805,56.159 14.56,55.541 14.175,54.57 13.911,53.55 13.604,52.549 13.496,52.196 13.395,51.838 13.318,51.478 12.808,49.05 11.452,47.411 9.063,46.552 8.103,46.207 7.274,45.487 6.399,44.918 5.729,44.482 5.102,43.974 4.41,43.576 3.91,43.287 3.333,43.25 2.848,43.665 c -0.456,0.39 -0.659,0.921 -0.516,1.498 0.147,0.594 0.319,1.206 0.615,1.735 2.057,3.685 4.423,7.133 7.767,9.8 0.968,0.773 2.001,1.432 3.169,1.884 1.291,0.498 2.526,0.465 3.752,-0.181 0.316,-0.168 0.653,-0.297 1.066,-0.481 0.424,0.606 0.319,1.236 0.371,1.818 0.561,6.208 1.023,12.427 1.696,18.622 0.544,5.027 1.313,10.031 2.039,15.036 0.282,1.951 -0.459,3.484 -1.668,4.886 -0.158,0.182 -0.376,0.321 -0.587,0.445 -1.076,0.632 -2.033,0.411 -2.719,-0.62 -0.456,-0.686 -0.721,-1.447 -0.691,-2.268 0.052,-1.477 0.114,-2.957 0.251,-4.428 0.17,-1.843 0.468,-3.674 0.616,-5.518 0.084,-1.039 0.042,-2.099 -0.058,-3.139 C 17.722,80.349 16.603,78.401 14.632,77.01 13.68,76.338 12.651,75.741 11.586,75.272 9.886,74.524 9.021,73.283 8.779,71.467 8.544,69.696 8.267,67.92 7.856,66.182 6.577,60.753 3.294,56.842 -1.521,54.157 c -0.925,-0.516 -1.942,-0.764 -3.021,-0.771 -1.207,-0.008 -2.012,0.554 -2.406,1.654 -0.205,0.572 -0.322,1.192 -0.373,1.799 -0.126,1.485 0.028,2.955 0.358,4.411 0.795,3.502 1.991,6.869 3.419,10.154 2.491,5.727 5.491,11.183 8.901,16.412 2.128,3.264 4.457,6.37 7.287,9.075 0.987,0.944 2.029,1.819 3.257,2.419 0.656,0.32 1.368,0.576 2.082,0.712 1.777,0.339 3.298,-0.158 4.463,-1.592 0.227,-0.278 0.453,-0.556 0.658,-0.808 0.553,0.149 0.537,0.566 0.606,0.892 0.809,3.798 1.582,7.603 2.407,11.397 0.315,1.445 0.761,2.861 1.102,4.301 0.23,0.974 0.021,1.352 -0.917,1.708 -2.018,0.763 -4.021,0.542 -5.959,-0.263 -2.479,-1.029 -4.314,-2.833 -5.759,-5.051 -1.528,-2.344 -2.555,-4.921 -3.425,-7.564 -0.58,-1.762 -1.26,-3.477 -2.187,-5.09 C 7.665,95.68 5.807,94.202 3.159,93.826 2.976,93.8 2.792,93.773 2.609,93.742 0.756,93.415 -0.526,92.37 -1.242,90.639 c -0.425,-1.026 -0.79,-2.077 -1.228,-3.097 -2.066,-4.819 -5.864,-7.344 -10.939,-8.001 -1.944,-0.25 -3.805,0.263 -5.369,1.564 -1.127,0.937 -1.631,2.104 -1.506,3.589 0.129,1.531 0.79,2.841 1.533,4.125 0.37,0.639 0.813,1.237 1.249,1.835 1.344,1.843 1.968,3.825 1.256,6.091 -0.111,0.352 -0.182,0.718 -0.242,1.084 -0.265,1.619 0.241,2.719 1.653,3.6 1.011,0.631 2.149,0.909 3.29,1.181 0.659,0.157 1.33,0.272 1.979,0.464 1.462,0.434 1.631,0.784 1.195,2.313 -0.118,0.415 -0.269,0.821 -0.381,1.237 -0.337,1.252 -0.05,2.332 0.965,3.161 0.572,0.466 1.164,0.922 1.797,1.298 2.713,1.61 5.559,2.93 8.552,3.948 5.619,1.91 11.418,2.616 17.32,2.587 2.271,-0.012 4.556,0.151 6.759,-0.31 0.432,0.384 0.193,0.741 0.074,1.062 -1.384,3.707 -3.964,6.336 -7.418,8.163 -2.591,1.37 -5.369,2.153 -8.244,2.658 -0.691,0.121 -1.23,-0.075 -1.696,-0.504 -0.589,-0.541 -1.108,-1.16 -1.691,-1.708 -1.167,-1.098 -2.307,-2.234 -3.551,-3.239 -1.702,-1.374 -3.663,-2.312 -5.814,-2.712 -1.076,-0.199 -2.211,-0.181 -3.312,-0.117 -0.864,0.05 -1.667,0.452 -2.36,0.991 -1.624,1.261 -3.4,1.332 -5.259,0.687 -0.99,-0.343 -1.95,-0.772 -2.936,-1.126 -1.1,-0.395 -2.207,-0.767 -3.322,-1.116 -1.329,-0.416 -2.685,-0.355 -4.032,-0.101 -0.968,0.182 -1.938,0.382 -2.885,0.65 -1.709,0.483 -3.404,0.486 -5.114,0.035 -0.536,-0.142 -1.079,-0.277 -1.627,-0.348 -0.485,-0.062 -0.996,-0.108 -1.469,-0.022 -0.89,0.162 -1.388,0.92 -1.135,1.799 0.185,0.638 0.505,1.26 0.877,1.816 1.103,1.653 2.493,3.065 3.977,4.371 2.928,2.577 6.085,4.843 9.567,6.623 3.32,1.698 6.808,2.9 10.541,3.267 3.661,0.361 7.13,-0.384 10.398,-2.025 1.375,-0.69 2.678,-1.528 4.003,-2.315 1.592,-0.945 3.165,-1.921 4.763,-2.854 0.802,-0.469 1.67,-0.714 2.61,-0.862 3.497,-0.548 6.844,-1.574 9.877,-3.47 2.684,-1.679 4.733,-3.927 6.132,-6.769 0.212,-0.431 0.468,-0.839 0.815,-1.453 0.251,0.575 0.438,0.937 0.571,1.317 1.169,3.318 2.381,6.617 3.82,9.831 0.273,0.612 0.497,1.28 0.57,1.941 0.356,3.222 0.195,6.393 -0.938,9.486 -0.482,1.313 -1.32,2.185 -2.527,2.798 -1.169,0.594 -2.396,0.984 -3.683,1.2 -1.34,0.224 -2.68,0.448 -4.02,0.67 -2.43,0.401 -4.164,1.778 -5.35,3.876 -0.455,0.803 -0.797,1.669 -1.199,2.502 -0.294,0.61 -0.569,1.233 -0.905,1.82 -1,1.749 -2.541,2.814 -4.432,3.421 -1.177,0.378 -2.325,0.833 -3.355,1.531 -1.689,1.146 -2.948,2.609 -3.405,4.663 -0.41,1.839 0.311,3.669 1.906,4.645 1.194,0.731 2.487,1.065 3.898,0.777 2.658,-0.54 5.307,-1.126 7.976,-1.598 5.444,-0.962 8.886,-4.263 10.917,-9.221 0.442,-1.079 0.792,-2.212 1.04,-3.352 0.827,-3.806 1.992,-7.504 3.356,-11.147 0.757,-2.021 1.517,-4.049 1.747,-6.218 0.116,-1.089 0.186,-2.182 0.277,-3.268 0.551,-0.025 0.614,0.405 0.78,0.705 1.652,2.971 3.487,5.824 5.533,8.537 3.75,4.972 8.134,9.276 13.465,12.55 2.964,1.821 6.093,3.276 9.591,3.722 1.589,0.202 3.193,0.389 4.792,0.395 7.07,0.03 13.685,-1.71 19.735,-5.398 6.398,-3.898 11.778,-8.941 16.378,-14.832 0.684,-0.875 1.348,-1.766 1.991,-2.67 0.867,-1.214 1.574,-2.521 1.92,-3.977 0.169,-0.708 0.259,-1.467 0.209,-2.191 -0.11,-1.62 -1.436,-2.533 -3.001,-2.108 -0.529,0.143 -1.038,0.396 -1.523,0.659 -0.922,0.5 -1.828,1.029 -2.727,1.57 -2.496,1.503 -5.18,2.261 -8.109,2.165 -1.852,-0.061 -3.719,-0.119 -5.527,0.362 -1.126,0.3 -2.263,0.651 -3.301,1.168 -1.962,0.978 -3.241,2.616 -4.016,4.655 -0.46,1.211 -0.885,2.436 -1.394,3.625 -0.412,0.961 -0.873,1.911 -1.409,2.807 -0.97,1.618 -2.266,2.911 -4,3.736 -2.031,0.966 -3.769,2.341 -5.342,3.931 -0.91,0.922 -1.8,1.865 -2.715,2.782 -0.391,0.393 -0.811,0.759 -1.239,1.112 -1.074,0.886 -2.193,1.152 -3.599,0.654 -3.004,-1.064 -5.705,-2.64 -8.256,-4.502 -5.099,-3.723 -9.213,-8.372 -12.668,-13.621 -4.236,-6.438 -7.355,-13.392 -9.568,-20.767 -1.812,-6.035 -3.306,-12.146 -4.38,-18.353 C 25.621,97.19 25.053,93.282 24.532,89.37 24.004,85.396 23.543,81.412 23.146,77.423 22.81,74.047 22.604,70.658 22.352,67.274 c -0.026,-0.346 0.034,-0.699 0.063,-1.231 0.745,0.335 1.357,0.594 1.956,0.882 1.899,0.912 3.869,1.6 5.925,2.079 3.975,0.928 7.859,0.392 11.712,-0.653 2.683,-0.729 5.309,-1.633 7.788,-2.909 0.819,-0.422 1.614,-0.911 2.353,-1.459 0.432,-0.32 0.81,-0.774 1.074,-1.245 0.53,-0.948 -0.199,-2.128 -1.279,-2.082 -0.546,0.023 -1.09,0.191 -1.623,0.341 -0.592,0.166 -1.167,0.401 -1.757,0.58 -1.289,0.39 -2.56,0.318 -3.806,-0.198 -0.342,-0.141 -0.685,-0.281 -1.025,-0.43 -1.938,-0.848 -3.86,-0.729 -5.732,0.176 -1.555,0.752 -3.077,1.572 -4.613,2.365 -1.818,0.938 -3.701,1.671 -5.738,1.997 -1.83,0.292 -3.539,-0.055 -5.287,-0.754 -0.323,-2.165 -0.506,-4.291 -0.461,-6.588 0.415,0.08 0.707,0.092 0.966,0.192 1.721,0.664 3.439,0.772 5.261,0.341 2.116,-0.501 4.095,-1.36 6.129,-2.076 1.975,-0.695 3.944,-1.413 5.897,-2.168 1.324,-0.513 2.656,-0.476 4.01,-0.24 0.364,0.063 0.724,0.163 1.091,0.208 1.684,0.206 3.329,0.141 4.851,-0.742 0.373,-0.216 0.776,-0.382 1.157,-0.585 1.937,-1.039 3.982,-1.625 6.203,-1.617 1.486,0.006 2.945,-0.227 4.356,-0.756 2.194,-0.824 3.783,-2.301 4.811,-4.372 0.465,-0.937 0.807,-1.934 1.192,-2.909 0.431,-1.089 0.871,-2.176 1.263,-3.278 0.411,-1.159 1.163,-1.713 2.41,-1.952 2.721,-0.518 5.429,-1.144 8.098,-1.884 1.653,-0.459 3.23,-1.198 4.832,-1.835 0.397,-0.159 0.762,-0.406 1.134,-0.624 1.675,-0.989 2.5,-2.349 2.477,-4.402 -0.081,-7.529 -0.032,-15.059 -0.032,-22.59 0,-0.741 -0.056,-1.486 0.009,-2.221 0.169,-1.918 -0.799,-3.156 -2.339,-4.074 -1.76,-1.05 -3.653,-1.794 -5.604,-2.394 -2.63,-0.81 -2.246,-0.237 -3.098,-3.232 -2.096,-7.356 -4.237,-14.7 -6.346,-22.051 -1.31,-4.564 -2.59,-9.135 -3.892,-13.699 -0.727,-2.551 -1.495,-5.091 -2.2,-7.649 -0.36,-1.303 -1.08,-2.338 -2.088,-3.202 -1.666,-1.427 -3.617,-2.344 -5.64,-3.119 -3.408,-1.306 -6.924,-2.222 -10.492,-2.971 -8.005,-1.68 -16.116,-2.416 -24.274,-2.642 -5.004,-0.14 -9.999,0.232 -14.981,0.706 -4.981,0.473 -9.924,1.224 -14.808,2.336 -3.614,0.822 -7.163,1.853 -10.559,3.368 -1.36,0.607 -2.64,1.338 -3.785,2.295 -0.968,0.808 -1.703,1.769 -2.054,3.007 -0.487,1.721 -1.023,3.428 -1.515,5.147 -2.528,8.835 -5.041,17.673 -7.573,26.506 -1.309,4.567 -2.668,9.119 -3.954,13.692 -0.231,0.819 -0.658,1.208 -1.439,1.481 -1.742,0.608 -3.454,1.31 -5.161,2.016 -0.507,0.209 -0.975,0.531 -1.43,0.848 -1.186,0.826 -1.809,1.892 -1.801,3.425 0.045,8.517 0.04,17.035 0.004,25.553 -0.006,1.44 0.499,2.552 1.658,3.307 1.081,0.703 2.209,1.366 3.394,1.866 3.022,1.276 6.208,2.024 9.417,2.656 9.83,1.934 19.767,2.963 29.762,3.487 4.254,0.223 8.51,0.424 12.767,0.576 0.993,0.036 1.598,0.373 1.999,1.293 0.343,0.784 0.789,1.545 1.311,2.223 1.24,1.609 2.83,2.718 5.011,2.981" /></g><g
           transform="translate(151.8292,109.4042)"
           id="g296"><path
             id="path298"
             style="fill:#523b36;fill-opacity:1;fill-rule:nonzero;stroke:none"
             d="m 0,0 c -0.544,-0.191 -0.99,-0.396 -1.458,-0.488 -0.188,-0.037 -0.505,0.117 -0.616,0.283 -0.111,0.163 -0.124,0.503 -0.026,0.676 0.471,0.817 1.224,1.17 2.158,1.161 C 0.825,1.625 1.496,1.331 2.126,0.929 2.696,0.564 3.256,0.183 3.82,-0.19 c 0.842,-0.557 1.716,-0.606 2.626,-0.172 0.498,0.237 0.99,0.508 1.512,0.674 1.613,0.511 3.49,-0.111 4.452,-1.432 0.239,-0.327 0.278,-0.829 0.002,-1.002 -0.232,-0.146 -0.569,-0.223 -0.839,-0.185 -0.288,0.04 -0.554,0.246 -0.825,0.39 C 9.793,-1.408 8.828,-1.418 7.943,-2.016 5.744,-3.501 3.794,-3.1 1.928,-1.386 1.349,-0.854 0.646,-0.457 0,0" /></g><g
           transform="translate(148.8507,105.8915)"
           id="g300"><path
             id="path302"
             style="fill:#523b36;fill-opacity:1;fill-rule:nonzero;stroke:none"
             d="m 0,0 c -0.972,0.048 -1.853,0.299 -2.65,0.799 -0.625,0.392 -1.224,0.828 -1.851,1.216 -0.468,0.29 -0.952,0.56 -1.451,0.793 -0.602,0.279 -1.192,0.329 -1.642,-0.303 -0.071,-0.1 -0.153,-0.198 -0.25,-0.271 -0.362,-0.266 -0.876,-0.07 -1.029,0.375 -0.226,0.659 -0.042,1.216 0.43,1.683 0.609,0.603 1.379,0.848 2.201,0.707 C -5.587,4.886 -4.92,4.685 -4.328,4.385 -3.564,3.999 -2.86,3.491 -2.149,3.008 -1.388,2.49 -0.675,1.896 0.252,1.671 0.424,1.629 0.615,1.534 0.726,1.403 0.875,1.228 1.083,0.956 1.035,0.793 0.961,0.536 0.72,0.305 0.5,0.121 0.375,0.018 0.151,0.032 0,0" /></g><g
           transform="translate(20.9542,63.4754)"
           id="g304"><path
             id="path306"
             style="fill:#9e824d;fill-opacity:1;fill-rule:nonzero;stroke:none"
             d="m 0,0 c 2.082,-0.645 4.25,-0.025 6.424,-0.321 0.114,-0.477 0.242,-0.885 0.305,-1.303 0.631,-4.145 1.207,-8.299 1.89,-12.436 0.554,-3.351 0.882,-6.717 1.109,-10.104 0.189,-2.855 1.539,-5.169 3.807,-6.903 0.729,-0.558 1.558,-0.995 2.376,-1.42 2.274,-1.186 4.26,-2.716 5.841,-4.746 0.218,-0.28 0.378,-0.604 0.539,-0.866 -0.264,-0.525 -0.68,-0.376 -1.013,-0.379 -2.716,-0.019 -5.431,-0.015 -8.147,-0.022 -7.097,-0.016 -14.194,-0.034 -21.291,-0.046 -0.668,-10e-4 -1.336,0.041 -2.073,0.066 -0.142,0.842 -0.046,1.552 0.131,2.264 0.529,2.127 1.501,4.035 2.827,5.772 1.572,2.059 3.169,4.1 4.699,6.19 0.615,0.839 1.145,1.755 1.598,2.692 0.654,1.353 0.819,2.82 0.807,4.321 -0.04,5.058 -0.055,10.117 -0.061,15.176 C -0.233,-1.401 -0.39,-0.708 0,0" /></g><g
           transform="translate(27.9293,11.6864)"
           id="g308"><path
             id="path310"
             style="fill:#edca55;fill-opacity:1;fill-rule:nonzero;stroke:none"
             d="m 0,0 c -0.226,0.354 -0.327,0.684 -0.548,0.826 -0.566,0.363 -1.173,0.673 -1.786,0.952 -2.573,1.174 -5.154,2.327 -7.731,3.491 -0.953,0.429 -1.894,0.882 -2.856,1.29 -0.587,0.249 -1.06,0.081 -1.255,-0.372 -0.157,-0.365 0.006,-0.75 0.54,-1.024 1.04,-0.531 2.098,-1.025 3.156,-1.52 2.673,-1.251 5.347,-2.502 8.03,-3.733 0.496,-0.227 1.029,-0.441 1.562,-0.496 C -0.638,-0.611 -0.348,-0.243 0,0 M 13.316,1.005 C 13.235,1.133 13.128,1.447 12.91,1.615 12.573,1.873 12.168,2.05 11.778,2.228 6.114,4.805 0.449,7.378 -5.22,9.945 c -0.39,0.177 -0.799,0.33 -1.215,0.429 -0.384,0.091 -0.745,-0.02 -0.907,-0.432 -0.153,-0.389 -0.056,-0.767 0.293,-0.97 0.584,-0.34 1.201,-0.627 1.817,-0.908 2.634,-1.2 5.275,-2.386 7.911,-3.585 2.917,-1.327 5.829,-2.663 8.746,-3.99 0.335,-0.152 0.68,-0.296 1.034,-0.391 0.412,-0.111 0.869,0.305 0.857,0.907 m -30.279,10.303 c 1.737,0.226 31.621,0.254 33.383,0.022 0.22,-0.47 0.531,-1 0.723,-1.57 0.553,-1.644 0.948,-3.323 0.941,-5.073 -0.007,-1.667 0.009,-3.333 -0.007,-4.999 -0.005,-0.542 0.084,-1.12 -0.408,-1.66 -0.155,-0.031 -0.39,-0.123 -0.624,-0.12 -11.236,0.139 -22.472,0.284 -33.709,0.439 -0.169,0.003 -0.338,0.118 -0.603,0.216 -0.057,0.258 -0.165,0.544 -0.176,0.835 -0.117,2.857 0.192,10.641 0.48,11.91" /></g><g
           transform="translate(8.4415,68.8797)"
           id="g312"><path
             id="path314"
             style="fill:#edca55;fill-opacity:1;fill-rule:nonzero;stroke:none"
             d="m 0,0 v 3.442 c 0.333,0.15 0.644,0.343 0.983,0.433 5.296,1.404 10.592,2.806 15.896,4.176 0.645,0.167 1.341,0.235 2.007,0.205 4.066,-0.183 8.13,-0.404 12.195,-0.62 0.364,-0.02 0.726,-0.092 1.162,-0.149 C 32.34,7.129 32.496,6.789 32.512,6.442 32.558,5.457 32.505,4.467 32.57,3.483 32.625,2.645 32.275,2.104 31.624,1.621 29.395,-0.032 27.186,-1.711 24.989,-3.407 24.321,-3.923 23.607,-4.138 22.771,-4.166 20.306,-4.25 17.842,-4.403 15.377,-4.49 14.771,-4.511 14.131,-4.482 13.558,-4.309 9.192,-2.987 4.839,-1.625 0.483,-0.271 0.369,-0.235 0.269,-0.152 0,0" /></g><g
           transform="translate(10.3575,3.492)"
           id="g316"><path
             id="path318"
             style="fill:#9e824d;fill-opacity:1;fill-rule:nonzero;stroke:none"
             d="M 0,0 C -0.157,1.693 -0.113,3.15 0.011,4.634 0.689,5.013 1.38,4.855 2.036,4.849 8.757,4.773 15.478,4.675 22.199,4.596 26.084,4.55 29.969,4.53 33.854,4.49 34.458,4.484 35.06,4.435 35.757,4.4 36.026,2.845 35.928,1.397 35.805,-0.058 35.164,-0.548 34.462,-0.381 33.81,-0.379 29.616,-0.363 25.423,-0.331 21.229,-0.289 14.816,-0.225 8.403,-0.149 1.991,-0.074 1.384,-0.067 0.778,-0.029 0,0" /></g><g
           transform="translate(32.3595,62.2206)"
           id="g320"><path
             id="path322"
             style="fill:#edca55;fill-opacity:1;fill-rule:nonzero;stroke:none"
             d="M 0,0 C 0.041,0.281 0.014,0.45 0.081,0.504 3.004,2.855 5.936,5.195 8.943,7.598 9.254,7.234 9.529,6.992 9.707,6.692 10.874,4.733 11.99,2.743 13.183,0.8 c 0.79,-1.288 0.931,-2.47 -0.035,-3.754 -1.178,-1.567 -1.09,-3.348 0.367,-5.061 2.118,-2.49 4.147,-5.056 5.798,-7.887 0.555,-0.952 0.975,-1.985 1.399,-3.004 0.133,-0.321 0.11,-0.719 0.1,-1.08 -0.008,-0.306 -0.415,-0.559 -0.684,-0.428 -0.441,0.213 -0.918,0.407 -1.275,0.727 -1.101,0.984 -2.229,1.955 -3.208,3.054 C 11.745,-12.25 8.307,-7.51 5.022,-2.656 4.849,-2.401 4.678,-2.145 4.518,-1.881 4.038,-1.096 3.375,-0.649 2.43,-0.538 1.643,-0.445 0.873,-0.2 0,0" /></g><g
           transform="translate(32.3595,62.2206)"
           id="g324"><path
             id="path326"
             style="fill:#523b36;fill-opacity:1;fill-rule:nonzero;stroke:none"
             d="m 0,0 c 0.873,-0.2 1.643,-0.445 2.43,-0.538 0.945,-0.111 1.608,-0.558 2.088,-1.343 0.16,-0.264 0.331,-0.52 0.504,-0.775 3.285,-4.854 6.723,-9.594 10.623,-13.977 0.979,-1.099 2.107,-2.07 3.208,-3.054 0.357,-0.32 0.834,-0.514 1.275,-0.727 0.269,-0.131 0.676,0.122 0.684,0.428 0.01,0.361 0.033,0.759 -0.1,1.08 -0.424,1.019 -0.844,2.052 -1.399,3.004 -1.651,2.831 -3.68,5.397 -5.798,7.887 -1.457,1.713 -1.545,3.494 -0.367,5.061 0.966,1.284 0.825,2.466 0.035,3.754 C 11.99,2.743 10.874,4.733 9.707,6.692 9.529,6.992 9.254,7.234 8.943,7.598 5.936,5.195 3.004,2.855 0.081,0.504 0.014,0.45 0.041,0.281 0,0 m -22.002,-58.729 c 0.778,-0.029 1.384,-0.067 1.991,-0.074 6.412,-0.075 12.825,-0.15 19.239,-0.215 4.193,-0.042 8.386,-0.074 12.58,-0.089 0.652,-0.002 1.354,-0.169 1.995,0.321 0.123,1.455 0.221,2.902 -0.048,4.458 -0.697,0.034 -1.299,0.084 -1.903,0.09 -3.885,0.04 -7.77,0.059 -11.655,0.105 -6.721,0.079 -13.442,0.178 -20.163,0.253 -0.656,0.007 -1.346,0.164 -2.025,-0.215 -0.124,-1.483 -0.168,-2.94 -0.011,-4.634 m -1.916,65.388 c 0.269,-0.152 0.369,-0.235 0.483,-0.27 4.356,-1.355 8.709,-2.717 13.075,-4.038 0.573,-0.174 1.214,-0.203 1.819,-0.182 2.465,0.087 4.929,0.24 7.395,0.324 0.835,0.028 1.549,0.243 2.217,0.759 2.197,1.696 4.406,3.375 6.635,5.028 0.651,0.484 1.001,1.024 0.946,1.863 -0.065,0.983 -0.012,1.973 -0.058,2.959 -0.016,0.346 -0.172,0.686 -0.269,1.044 -0.436,0.057 -0.798,0.129 -1.162,0.149 -4.065,0.216 -8.129,0.437 -12.195,0.62 -0.666,0.03 -1.362,-0.038 -2.007,-0.205 -5.304,-1.37 -10.6,-2.772 -15.896,-4.176 -0.339,-0.09 -0.65,-0.283 -0.983,-0.432 z m 2.524,-45.886 c -0.287,-1.268 -0.596,-9.052 -0.48,-11.909 0.012,-0.291 0.12,-0.577 0.177,-0.835 0.264,-0.098 0.433,-0.214 0.603,-0.217 11.237,-0.154 22.472,-0.299 33.709,-0.438 0.234,-0.003 0.468,0.089 0.624,0.12 0.491,0.54 0.403,1.117 0.408,1.659 0.016,1.666 0,3.332 0.007,4.999 0.007,1.751 -0.388,3.43 -0.942,5.074 -0.191,0.57 -0.502,1.1 -0.722,1.57 -1.762,0.231 -31.646,0.204 -33.384,-0.023 m 9.989,40.482 c -0.39,-0.708 -0.233,-1.401 -0.232,-2.066 0.006,-5.058 0.021,-10.117 0.061,-15.175 0.012,-1.501 -0.153,-2.968 -0.807,-4.322 -0.453,-0.936 -0.984,-1.852 -1.598,-2.691 -1.53,-2.09 -3.127,-4.131 -4.699,-6.19 -1.326,-1.737 -2.298,-3.645 -2.827,-5.772 -0.177,-0.712 -0.273,-1.422 -0.132,-2.265 0.738,-0.024 1.406,-0.066 2.074,-0.065 7.097,0.012 14.194,0.03 21.291,0.046 2.715,0.007 5.431,0.003 8.147,0.022 0.333,0.003 0.749,-0.146 1.012,0.379 -0.16,0.262 -0.321,0.586 -0.538,0.865 -1.581,2.031 -3.567,3.561 -5.842,4.747 -0.817,0.425 -1.647,0.862 -2.375,1.42 -2.268,1.734 -3.618,4.048 -3.808,6.903 -0.226,3.387 -0.554,6.753 -1.108,10.104 -0.684,4.137 -1.259,8.291 -1.89,12.436 -0.064,0.418 -0.192,0.826 -0.305,1.303 -2.174,0.295 -4.343,-0.324 -6.424,0.321 m 8.693,-1.629 C -2.387,0.162 -2.119,0.604 -1.745,1.22 -2.322,1.169 -2.67,1.139 -3.116,1.1 -3.137,0.7 -3.213,0.341 -3.167,-0.002 c 0.28,-2.076 0.576,-4.151 0.886,-6.224 0.539,-3.596 1.137,-7.185 1.62,-10.79 0.253,-1.892 0.313,-3.81 0.461,-5.717 0.182,-2.345 1.235,-4.248 3.03,-5.721 0.661,-0.542 1.429,-0.977 2.201,-1.353 2.952,-1.441 5.329,-3.532 7.217,-6.204 1.972,-2.792 3.112,-5.872 3.131,-9.305 0.025,-4.812 -0.007,-9.623 -0.021,-14.436 -0.001,-0.178 -0.068,-0.355 -0.104,-0.534 -0.504,-0.538 -1.154,-0.367 -1.747,-0.363 -2.715,0.017 -5.431,0.072 -8.147,0.093 -8.641,0.067 -17.282,0.122 -25.923,0.19 -0.92,0.007 -1.84,0.061 -2.856,0.097 -0.094,0.477 -0.244,0.879 -0.241,1.282 0.042,6.847 0.034,13.697 0.187,20.543 0.085,3.786 1.282,7.254 3.678,10.271 1.611,2.027 3.124,4.134 4.708,6.183 1.374,1.777 2.049,3.761 2.027,6.012 -0.056,5.491 -0.077,10.982 -0.122,16.473 -0.003,0.42 -0.084,0.839 -0.138,1.342 -0.68,0.22 -1.313,0.434 -1.951,0.63 -2.889,0.882 -5.78,1.757 -8.668,2.638 -0.236,0.072 -0.468,0.158 -0.692,0.257 -0.434,0.191 -0.679,0.526 -0.68,1.007 -0.001,1.532 -0.087,3.069 0.072,4.659 0.508,0.204 0.941,0.433 1.402,0.557 5.48,1.473 10.959,2.947 16.451,4.372 0.82,0.213 1.71,0.271 2.559,0.233 3.947,-0.171 7.89,-0.412 11.834,-0.608 1.603,-0.08 3.208,-0.104 4.811,-0.166 0.606,-0.023 1.234,0.046 1.864,-0.317 0.056,-0.209 0.17,-0.437 0.172,-0.666 0.011,-1.604 0.018,-3.208 -0.012,-4.812 C 13.825,8.697 13.574,8.466 12.633,8.336 12.086,8.261 11.539,8.193 10.994,8.114 10.943,8.106 10.902,8.04 10.835,7.983 c -0.211,-0.457 0.12,-0.795 0.325,-1.15 1.048,-1.816 2.071,-3.648 3.175,-5.431 1.052,-1.698 1.142,-3.289 -0.046,-4.986 -0.972,-1.389 -0.816,-2.262 0.291,-3.687 1.628,-2.091 3.294,-4.158 4.834,-6.314 0.854,-1.196 1.518,-2.536 2.201,-3.846 0.28,-0.536 0.424,-1.154 0.557,-1.752 0.078,-0.348 0.072,-0.743 -0.004,-1.092 -0.268,-1.244 -1.366,-1.884 -2.519,-1.359 -0.828,0.376 -1.645,0.888 -2.297,1.515 -1.511,1.45 -2.988,2.947 -4.353,4.533 -3.264,3.792 -6.125,7.891 -8.955,12.011 -0.174,0.254 -0.357,0.504 -0.513,0.769 -0.338,0.573 -0.843,0.86 -1.485,0.994 -1.269,0.262 -2.535,0.54 -3.79,0.86 -0.319,0.082 -0.592,0.347 -0.968,0.578" /></g><g
           transform="translate(41.2457,12.6913)"
           id="g328"><path
             id="path330"
             style="fill:#523b36;fill-opacity:1;fill-rule:nonzero;stroke:none"
             d="m 0,0 c 0.011,-0.602 -0.445,-1.018 -0.857,-0.907 -0.354,0.095 -0.699,0.239 -1.034,0.391 -2.917,1.328 -5.83,2.663 -8.746,3.991 -2.636,1.198 -5.277,2.384 -7.912,3.585 -0.616,0.28 -1.233,0.567 -1.816,0.907 -0.349,0.203 -0.446,0.581 -0.294,0.971 0.162,0.412 0.524,0.522 0.908,0.431 0.416,-0.098 0.824,-0.252 1.215,-0.429 C -12.868,6.373 -7.203,3.8 -1.539,1.223 -1.148,1.045 -0.743,0.868 -0.407,0.61 -0.188,0.442 -0.082,0.128 0,0" /></g><g
           transform="translate(27.9293,11.6864)"
           id="g332"><path
             id="path334"
             style="fill:#523b36;fill-opacity:1;fill-rule:nonzero;stroke:none"
             d="m 0,0 c -0.348,-0.243 -0.638,-0.611 -0.888,-0.586 -0.533,0.055 -1.066,0.269 -1.562,0.496 -2.683,1.231 -5.357,2.482 -8.03,3.733 -1.058,0.495 -2.116,0.989 -3.156,1.52 -0.534,0.274 -0.697,0.659 -0.54,1.024 0.195,0.453 0.668,0.621 1.255,0.372 0.962,-0.408 1.903,-0.861 2.856,-1.29 2.577,-1.164 5.158,-2.317 7.731,-3.491 0.613,-0.279 1.22,-0.589 1.786,-0.952 C -0.327,0.684 -0.226,0.354 0,0" /></g></g></g></g></svg>