<?xml version="1.0" encoding="UTF-8" standalone="no"?>
<svg
   xmlns:dc="http://purl.org/dc/elements/1.1/"
   xmlns:cc="http://creativecommons.org/ns#"
   xmlns:rdf="http://www.w3.org/1999/02/22-rdf-syntax-ns#"
   xmlns:svg="http://www.w3.org/2000/svg"
   xmlns="http://www.w3.org/2000/svg"
   viewBox="0 0 2141.9333 191.73334"
   height="191.73334"
   width="2141.9333"
   xml:space="preserve"
   id="svg2"
   version="1.1"><metadata
     id="metadata8"><rdf:RDF><cc:Work
         rdf:about=""><dc:format>image/svg+xml</dc:format><dc:type
           rdf:resource="http://purl.org/dc/dcmitype/StillImage" /></cc:Work></rdf:RDF></metadata><defs
     id="defs6"><clipPath
       id="clipPath18"
       clipPathUnits="userSpaceOnUse"><path
         id="path16"
         d="M 0,143.8 H 1606.453 V 0 H 0 Z" /></clipPath></defs><g
     transform="matrix(1.3333333,0,0,-1.3333333,0,191.73333)"
     id="g10"><g
       id="g12"><g
         clip-path="url(#clipPath18)"
         id="g14"><g
           transform="translate(1606.4531,143.8013)"
           id="g20"><path
             id="path22"
             style="fill:#f3f0e3;fill-opacity:1;fill-rule:nonzero;stroke:none"
             d="m 0,0 v -139.68 c -41.573,4.64 -83.12,9.493 -124.72,13.84 -33.026,3.44 -66.093,6.559 -99.186,9.254 -37.094,3.026 -74.214,5.706 -111.347,7.987 -35.186,2.159 -70.4,3.519 -105.601,5.412 -106.239,5.721 -212.559,4.094 -318.866,3.601 -43.013,-0.213 -86.027,-2.294 -129.027,-4.028 -32.773,-1.318 -65.546,-3.133 -98.279,-5.266 -41.107,-2.68 -82.201,-5.879 -123.294,-8.933 -36,-2.681 -72,-5.439 -107.987,-8.241 -39.52,-3.066 -79.013,-6.599 -118.573,-9.199 -47.987,-3.161 -95.987,-6.333 -144.04,-8.013 -34.547,-1.2 -69.187,-0.04 -103.786,0.213 -6.64,0.053 -13.267,0.893 -19.907,1.266 -0.667,0.04 -1.28,0.093 -1.84,0.201 l 0,141.586 H 0" /></g><g
           transform="translate(91.3359,16.086)"
           id="g24"><path
             id="path26"
             style="fill:#472820;fill-opacity:1;fill-rule:nonzero;stroke:none"
             d="M 0,0 C -30.777,0.55 -60.741,-1.142 -91.336,1.549 V 7.127 C 154.295,-2.55 402.996,38.377 646.458,45.011 935.572,59.033 1225.307,33.938 1515.117,27.616 V 3.854 C 1226.724,40.011 935.956,52.464 646.625,41.019 433.059,33.689 215.859,4.763 0,0" /></g></g></g></g></svg>