<?xml version="1.0" encoding="UTF-8" standalone="no"?>
<svg
   xmlns:dc="http://purl.org/dc/elements/1.1/"
   xmlns:cc="http://creativecommons.org/ns#"
   xmlns:rdf="http://www.w3.org/1999/02/22-rdf-syntax-ns#"
   xmlns:svg="http://www.w3.org/2000/svg"
   xmlns="http://www.w3.org/2000/svg"
   viewBox="0 0 1606.4532 251.42"
   height="251.42"
   width="1606.4532"
   xml:space="preserve"
   id="svg2"
   version="1.1"><metadata
     id="metadata8"><rdf:RDF><cc:Work
         rdf:about=""><dc:format>image/svg+xml</dc:format><dc:type
           rdf:resource="http://purl.org/dc/dcmitype/StillImage" /></cc:Work></rdf:RDF></metadata><defs
     id="defs6"><clipPath
       id="clipPath18"
       clipPathUnits="userSpaceOnUse"><path
         id="path16"
         d="M 0,188.565 H 1204.84 V 0 H 0 Z" /></clipPath></defs><g
     transform="matrix(1.3333333,0,0,-1.3333333,0,251.42)"
     id="g10"><g
       id="g12"><g
         clip-path="url(#clipPath18)"
         id="g14"><g
           transform="translate(1204.8403,188.5653)"
           id="g20"><path
             id="path22"
             style="fill:#9e824d;fill-opacity:1;fill-rule:nonzero;stroke:none"
             d="m 0,0 v -104.76 c -31.181,3.48 -62.341,7.12 -93.54,10.38 -24.771,2.58 -49.57,4.92 -74.391,6.94 -27.819,2.27 -55.66,4.28 -83.509,5.99 -26.39,1.62 -52.8,2.64 -79.201,4.06 -79.679,4.29 -159.42,3.07 -239.149,2.7 -32.261,-0.16 -64.521,-1.72 -96.771,-3.02 -24.58,-0.99 -49.159,-2.35 -73.71,-3.95 -30.83,-2.01 -61.649,-4.41 -92.469,-6.7 -27,-2.01 -54,-4.08 -80.99,-6.18 -29.641,-2.3 -59.26,-4.95 -88.93,-6.9 -35.99,-2.37 -71.99,-4.75 -108.03,-6.01 -25.911,-0.9 -51.891,-0.03 -77.84,0.16 -4.98,0.04 -9.95,0.67 -14.93,0.95 -0.5,0.03 -0.96,0.07 -1.38,0.15 l 0,106.19 z" /></g><g
           transform="translate(68.502,92.7792)"
           id="g24"><path
             id="path26"
             style="fill:#f6f4e7;fill-opacity:1;fill-rule:nonzero;stroke:none"
             d="M 0,0 C -23.083,0.412 -45.556,-0.856 -68.502,1.16 V 5.345 C 115.721,-1.912 302.247,28.782 484.844,33.757 701.679,44.274 918.98,25.453 1136.338,20.711 V 2.89 C 920.043,30.008 701.966,39.347 484.968,30.763 324.794,25.267 161.894,3.572 0,0" /></g></g></g></g></svg>