<?xml version="1.0" encoding="UTF-8" standalone="no"?>
<svg
   xmlns:dc="http://purl.org/dc/elements/1.1/"
   xmlns:cc="http://creativecommons.org/ns#"
   xmlns:rdf="http://www.w3.org/1999/02/22-rdf-syntax-ns#"
   xmlns:svg="http://www.w3.org/2000/svg"
   xmlns="http://www.w3.org/2000/svg"
   viewBox="0 0 279.276 157.464"
   height="157.464"
   width="279.276"
   xml:space="preserve"
   id="svg2"
   version="1.1"><metadata
     id="metadata8"><rdf:RDF><cc:Work
         rdf:about=""><dc:format>image/svg+xml</dc:format><dc:type
           rdf:resource="http://purl.org/dc/dcmitype/StillImage" /></cc:Work></rdf:RDF></metadata><defs
     id="defs6"><clipPath
       id="clipPath18"
       clipPathUnits="userSpaceOnUse"><path
         id="path16"
         d="M 0,118.098 H 209.457 V 0 H 0 Z" /></clipPath></defs><g
     transform="matrix(1.3333333,0,0,-1.3333333,0,157.464)"
     id="g10"><g
       id="g12"><g
         clip-path="url(#clipPath18)"
         id="g14"><g
           transform="translate(25.4472,91.0701)"
           id="g20"><path
             id="path22"
             style="fill:#513a35;fill-opacity:1;fill-rule:nonzero;stroke:none"
             d="M 0,0 C 0.147,1.186 0.105,2.57 -0.128,4.154 -0.361,5.736 -0.868,6.81 -1.646,7.375 -2.426,7.939 -3.606,8.104 -5.188,7.871 -6.075,7.74 -6.971,7.56 -7.874,7.329 l 1.254,-8.5 c 0.85,-0.068 1.846,-0.018 2.985,0.15 C -1.957,-0.774 -0.745,-0.434 0,0 m -16.787,-16.45 3.326,1.461 -2.669,18.093 c -0.121,0.822 -0.266,1.359 -0.432,1.609 -0.167,0.25 -0.535,0.447 -1.105,0.59 l -2.673,1.012 -0.289,3.936 c 4.646,1.396 9.168,2.42 13.569,3.069 3.419,0.505 6.223,0.57 8.414,0.198 C 3.543,13.145 5.227,12.31 6.405,11.013 7.583,9.714 8.348,7.878 8.697,5.504 8.987,3.541 8.733,1.749 7.937,0.128 7.142,-1.494 5.868,-2.838 4.117,-3.905 l 9.405,-11.131 0.226,-1.859 -8.643,-1.274 -8.898,11.642 -2.096,-0.261 0.785,-5.318 c 0.112,-0.76 0.238,-1.235 0.379,-1.424 0.141,-0.19 0.453,-0.379 0.933,-0.566 l 2.217,-0.886 0.413,-4.112 -14.674,-2.164 z" /></g><g
           transform="translate(39.9941,79.0081)"
           id="g24"><path
             id="path26"
             style="fill:#513a35;fill-opacity:1;fill-rule:nonzero;stroke:none"
             d="m 0,0 3.422,1.219 -1.37,18.332 c -0.063,0.83 -0.168,1.375 -0.316,1.637 -0.147,0.262 -0.501,0.484 -1.06,0.667 L -1.821,23.064 -2,27.383 23.992,29.327 c 0.473,-3.334 0.83,-6.598 1.069,-9.788 l -3.525,-0.504 -3.713,3.958 -7.242,-0.349 0.583,-7.802 10.131,1.624 0.552,-7.372 -10.279,0.339 0.577,-7.706 7.935,0.737 3.37,4.488 3.561,0.026 c 0.122,-3.361 0.128,-6.65 0.015,-9.867 L 0.604,-4.864 Z" /></g><g
           transform="translate(70.1425,103.0404)"
           id="g28"><path
             id="path30"
             style="fill:#513a35;fill-opacity:1;fill-rule:nonzero;stroke:none"
             d="m 0,0 -1.64,2.216 0.11,3.364 13.819,0.342 0.593,-4.547 -3.386,-0.948 6.833,-18.028 5.3,16.697 c 0.09,0.258 0.133,0.483 0.128,0.675 -0.011,0.416 -0.209,0.683 -0.597,0.802 l -3.344,1.261 0.232,4.231 12.523,0.311 0.39,-4.072 -2.045,-2.74 -9.823,-25.979 -8.236,-0.924 z" /></g><g
           transform="translate(104.0126,81.8309)"
           id="g32"><path
             id="path34"
             style="fill:#513a35;fill-opacity:1;fill-rule:nonzero;stroke:none"
             d="m 0,0 3.516,0.92 0.211,18.383 c 0.01,0.831 -0.049,1.384 -0.173,1.657 -0.125,0.273 -0.458,0.526 -1,0.756 L 0.075,23.185 0.364,27.454 15.771,27.277 15.907,22.379 12.44,21.458 12.225,2.74 c -0.009,-0.768 0.041,-1.265 0.151,-1.49 0.109,-0.226 0.403,-0.453 0.88,-0.682 l 2.431,-1.516 -0.191,-4.126 -15.311,0.176 z" /></g><g
           transform="translate(122.2953,81.6839)"
           id="g36"><path
             id="path38"
             style="fill:#513a35;fill-opacity:1;fill-rule:nonzero;stroke:none"
             d="m 0,0 3.545,0.797 0.851,18.364 c 0.038,0.831 0,1.385 -0.116,1.663 -0.115,0.278 -0.439,0.541 -0.972,0.79 l -2.333,1.502 0.343,4.308 26.036,-1.206 c 0.069,-3.367 0.029,-6.649 -0.119,-9.845 l -3.559,-0.075 -3.209,4.377 -7.232,0.527 -0.362,-7.815 10.253,0.389 L 22.784,6.393 12.622,7.968 12.265,0.249 20.23,0.024 24.118,4.072 27.655,3.668 C 27.371,0.317 26.979,-2.948 26.48,-6.128 L 0.013,-4.902 Z" /></g><g
           transform="translate(155.7563,102.3167)"
           id="g40"><path
             id="path42"
             style="fill:#513a35;fill-opacity:1;fill-rule:nonzero;stroke:none"
             d="m 0,0 -1.339,2.442 0.61,3.309 13.668,-1.714 -0.282,-4.561 -3.543,-0.475 3.593,-19.172 6.556,14.077 -1.325,6.407 0.574,3.024 12.668,-1.589 -0.282,-4.561 -3.256,-0.51 3.545,-19.167 7.592,16.173 c 0.127,0.242 0.202,0.458 0.227,0.649 0.052,0.412 -0.121,0.708 -0.518,0.887 l -3.071,1.74 0.812,4.155 12.478,-1.566 -0.27,-4.078 -2.288,-2.422 -13.211,-24.32 -8.435,0.236 -3.173,15.201 -6.87,-13.119 -8.913,0.296 z" /></g><g
           transform="translate(59.331,12.5076)"
           id="g44"><path
             id="path46"
             style="fill:#513a35;fill-opacity:1;fill-rule:nonzero;stroke:none"
             d="m 0,0 2.904,0.697 0.488,17.52 c 0.022,0.793 -0.017,1.32 -0.117,1.583 -0.099,0.262 -0.39,0.507 -0.872,0.733 l -1.89,1.152 0.258,4.341 14.271,-0.397 0.1,-4.672 -3.411,-0.82 L 11.181,0.375 16.948,0.352 20.96,4.681 24.477,4.4 C 24.344,1.84 24.04,-1.447 23.561,-5.463 L 0.095,-4.81 Z" /></g><g
           transform="translate(106.6977,14.1258)"
           id="g48"><path
             id="path50"
             style="fill:#513a35;fill-opacity:1;fill-rule:nonzero;stroke:none"
             d="m 0,0 c 0.328,0.948 0.578,2.134 0.75,3.553 0.171,1.421 0.251,2.817 0.24,4.19 -0.028,3.386 -0.682,5.944 -1.962,7.672 -1.28,1.728 -3.141,2.582 -5.581,2.563 -1.739,-0.015 -3.414,-0.348 -5.026,-1.002 -0.331,-0.583 -0.582,-1.538 -0.754,-2.867 -0.172,-1.328 -0.251,-2.847 -0.237,-4.555 0.028,-3.539 0.692,-6.249 1.987,-8.129 1.297,-1.882 3.166,-2.812 5.607,-2.792 C -3.238,-1.353 -1.579,-0.897 0,0 m -17.243,-3.938 c -2.507,2.542 -3.782,6.421 -3.824,11.638 -0.028,3.386 0.573,6.327 1.804,8.823 1.231,2.497 2.999,4.425 5.307,5.788 2.308,1.36 5.063,2.054 8.266,2.081 C 4.499,24.475 9.636,19.314 9.721,8.912 9.749,5.495 9.147,2.546 7.916,0.065 6.686,-2.416 4.894,-4.322 2.541,-5.653 c -2.354,-1.331 -5.163,-2.01 -8.427,-2.036 -5.064,-0.042 -8.85,1.209 -11.357,3.751" /></g><g
           transform="translate(140.5922,15.3709)"
           id="g52"><path
             id="path54"
             style="fill:#513a35;fill-opacity:1;fill-rule:nonzero;stroke:none"
             d="m 0,0 c 0.285,0.961 0.484,2.156 0.593,3.582 0.109,1.426 0.129,2.825 0.057,4.195 -0.175,3.382 -0.941,5.909 -2.295,7.579 -1.354,1.671 -3.251,2.444 -5.687,2.318 -1.737,-0.09 -3.397,-0.497 -4.977,-1.221 -0.306,-0.597 -0.515,-1.562 -0.629,-2.896 -0.114,-1.335 -0.127,-2.856 -0.039,-4.562 0.184,-3.535 0.964,-6.213 2.342,-8.035 1.378,-1.823 3.284,-2.67 5.722,-2.544 C -3.176,-1.494 -1.539,-0.966 0,0 m -17.056,-4.688 c -2.616,2.43 -4.057,6.25 -4.329,11.459 -0.175,3.382 0.297,6.347 1.418,8.895 1.12,2.548 2.804,4.552 5.049,6.013 2.246,1.461 4.969,2.274 8.168,2.44 C 3.425,24.646 8.783,19.716 9.322,9.327 9.499,5.915 9.026,2.942 7.906,0.41 6.784,-2.123 5.077,-4.105 2.784,-5.537 0.491,-6.971 -2.286,-7.771 -5.545,-7.94 c -5.058,-0.262 -8.894,0.822 -11.511,3.252" /></g><g
           transform="translate(107.2582,51.2547)"
           id="g56"><path
             id="path58"
             style="fill:#513a35;fill-opacity:1;fill-rule:nonzero;stroke:none"
             d="M 0,0 -0.157,2.985 C -0.785,3.037 -1.205,3.063 -1.414,3.063 -2.121,3.063 -2.946,2.991 -3.889,2.848 -4.832,2.704 -5.578,2.54 -6.128,2.356 -6.206,2.016 -6.245,1.702 -6.245,1.414 c 0,-0.786 0.216,-1.394 0.648,-1.826 0.431,-0.433 1.027,-0.649 1.787,-0.649 1.047,0 2.318,0.354 3.81,1.061 m -10.724,-4.026 c -1.074,0.982 -1.61,2.245 -1.61,3.791 0,2.068 1.042,3.692 3.123,4.87 2.082,1.178 5.112,1.846 9.093,2.003 0,1.231 -0.099,2.141 -0.294,2.73 -0.196,0.59 -0.55,0.995 -1.061,1.218 -0.51,0.223 -1.29,0.334 -2.337,0.334 -1.074,0 -1.834,-0.039 -2.278,-0.118 l -1.611,-3.181 -2.906,0.196 c -0.446,2.094 -0.76,4.267 -0.943,6.52 1.466,0.497 3.07,0.891 4.811,1.179 1.742,0.288 3.372,0.432 4.891,0.432 2.776,0 4.766,-0.544 5.971,-1.631 1.204,-1.087 1.807,-2.886 1.807,-5.4 v -8.21 c 0,-0.472 0.046,-0.799 0.137,-0.982 0.091,-0.184 0.294,-0.367 0.609,-0.55 L 8.249,-1.729 8.092,-4.164 c -3.038,-0.707 -5.435,-1.1 -7.189,-1.178 -0.052,0.156 -0.131,0.439 -0.235,0.845 -0.106,0.405 -0.196,0.791 -0.275,1.158 -1.022,-0.654 -2.141,-1.178 -3.358,-1.571 -1.219,-0.393 -2.377,-0.589 -3.477,-0.589 -1.781,0 -3.207,0.491 -4.282,1.473" /></g><g
           transform="translate(159.9702,56.1151)"
           id="g60"><path
             id="path62"
             style="fill:#ecca53;fill-opacity:1;fill-rule:nonzero;stroke:none"
             d="m 0,0 c 0.141,-4.006 -1.889,-6.084 -5.761,-6.574 1.693,-1.141 3.764,-0.882 5.275,0.578 C 1.04,-4.522 1.27,-1.975 0,0 m -3.562,8.248 c 2.909,-2.613 5.356,-5.41 6.353,-9.187 0.858,-3.254 -0.528,-6.392 -3.38,-7.838 -2.831,-1.436 -6.038,-0.763 -8.143,1.778 -1.661,2.004 -1.823,4.335 -1.039,6.696 1.148,3.461 3.406,6.161 6.209,8.551" /></g><g
           transform="translate(181.1752,50.2528)"
           id="g64"><path
             id="path66"
             style="fill:#96d1e7;fill-opacity:1;fill-rule:nonzero;stroke:none"
             d="m 0,0 c 0.172,-4.874 -2.298,-7.402 -7.009,-7.998 2.06,-1.389 4.579,-1.073 6.417,0.702 C 1.266,-5.502 1.545,-2.402 0,0 M -4.333,10.035 C -0.795,6.856 2.183,3.454 3.396,-1.144 4.44,-5.102 2.753,-8.92 -0.716,-10.679 c -3.445,-1.746 -7.347,-0.928 -9.908,2.163 -2.021,2.439 -2.218,5.274 -1.264,8.148 1.397,4.211 4.143,7.495 7.555,10.403" /></g><g
           transform="translate(138.9164,56.9735)"
           id="g68"><path
             id="path70"
             style="fill:#513a35;fill-opacity:1;fill-rule:nonzero;stroke:none"
             d="m 0,0 c 0.11,-3.117 -1.47,-4.733 -4.482,-5.115 1.317,-0.888 2.928,-0.686 4.104,0.45 C 0.81,-3.519 0.988,-1.536 0,0 M -2.771,6.418 C -0.508,4.385 1.396,2.209 2.172,-0.73 2.84,-3.263 1.761,-5.704 -0.457,-6.829 c -2.204,-1.117 -4.699,-0.594 -6.337,1.384 -1.292,1.559 -1.419,3.372 -0.809,5.21 0.894,2.693 2.65,4.794 4.832,6.653" /></g><g
           transform="translate(55.2851,50.119)"
           id="g72"><path
             id="path74"
             style="fill:#ecca53;fill-opacity:1;fill-rule:nonzero;stroke:none"
             d="M 0,0 C 1.511,-1.46 3.582,-1.719 5.274,-0.578 1.403,-0.088 -0.627,1.99 -0.486,5.996 -1.756,4.021 -1.526,1.474 0,0 M 9.285,5.693 C 10.068,3.332 9.906,1.001 8.246,-1.003 6.141,-3.544 2.934,-4.217 0.102,-2.781 c -2.851,1.446 -4.237,4.584 -3.379,7.838 0.997,3.777 3.444,6.574 6.352,9.187 2.804,-2.39 5.062,-5.09 6.21,-8.551" /></g><g
           transform="translate(34.1855,42.9569)"
           id="g76"><path
             id="path78"
             style="fill:#96d1e7;fill-opacity:1;fill-rule:nonzero;stroke:none"
             d="M 0,0 C 1.838,-1.775 4.358,-2.091 6.417,-0.702 1.707,-0.106 -0.763,2.422 -0.592,7.296 -2.136,4.894 -1.857,1.794 0,0 M 11.296,6.928 C 12.25,4.054 12.053,1.219 10.032,-1.22 7.471,-4.312 3.569,-5.129 0.124,-3.383 c -3.469,1.759 -5.156,5.577 -4.111,9.535 1.213,4.598 4.19,8 7.728,11.179 3.412,-2.908 6.158,-6.192 7.555,-10.403" /></g><g
           transform="translate(76.2309,52.3084)"
           id="g80"><path
             id="path82"
             style="fill:#513a35;fill-opacity:1;fill-rule:nonzero;stroke:none"
             d="M 0,0 C 1.176,-1.136 2.787,-1.338 4.104,-0.45 1.091,-0.068 -0.488,1.548 -0.378,4.665 -1.366,3.129 -1.188,1.146 0,0 M 7.225,4.43 C 7.834,2.592 7.708,0.779 6.416,-0.78 4.778,-2.758 2.283,-3.281 0.079,-2.164 -2.139,-1.039 -3.218,1.402 -2.55,3.935 -1.774,6.875 0.13,9.05 2.393,11.083 4.575,9.224 6.331,7.123 7.225,4.43" /></g></g></g></g></svg>