<?xml version="1.0" encoding="UTF-8" standalone="no"?>
<svg
   xmlns:dc="http://purl.org/dc/elements/1.1/"
   xmlns:cc="http://creativecommons.org/ns#"
   xmlns:rdf="http://www.w3.org/1999/02/22-rdf-syntax-ns#"
   xmlns:svg="http://www.w3.org/2000/svg"
   xmlns="http://www.w3.org/2000/svg"
   xmlns:sodipodi="http://sodipodi.sourceforge.net/DTD/sodipodi-0.dtd"
   xmlns:inkscape="http://www.inkscape.org/namespaces/inkscape"
   version="1.1"
   id="svg2"
   xml:space="preserve"
   width="1606.4532"
   height="143.8"
   viewBox="0 0 1606.4532 143.8"
   sodipodi:docname="svgtest.eps"><metadata
     id="metadata8"><rdf:RDF><cc:Work
         rdf:about=""><dc:format>image/svg+xml</dc:format><dc:type
           rdf:resource="http://purl.org/dc/dcmitype/StillImage" /></cc:Work></rdf:RDF></metadata><defs
     id="defs6" /><sodipodi:namedview
     pagecolor="#ffffff"
     bordercolor="#666666"
     borderopacity="1"
     objecttolerance="10"
     gridtolerance="10"
     guidetolerance="10"
     inkscape:pageopacity="0"
     inkscape:pageshadow="2"
     inkscape:window-width="640"
     inkscape:window-height="480"
     id="namedview4" /><g
     id="g10"
     inkscape:groupmode="layer"
     inkscape:label="ink_ext_XXXXXX"
     transform="matrix(1.3333333,0,0,-1.3333333,0,143.8)"><g
       id="g12"
       transform="scale(0.1)"><path
         d="M 12048.4,1078.51 V 30.9102 c -311.8,34.8007 -623.4,71.1988 -935.4,103.7968 -247.7,25.801 -495.7,49.199 -743.9,69.406 -278.2,22.696 -556.6,42.793 -835.1,59.903 -263.9,16.191 -528,26.394 -792,40.593 -796.8,42.903 -1594.2,30.704 -2391.5,27.004 -322.6,-1.601 -645.2,-17.207 -967.7,-30.207 -245.8,-9.89 -491.6,-23.496 -737.1,-39.5 C 4337.4,241.809 4029.2,217.813 3721,194.914 3451,174.805 3181,154.113 2911.1,133.105 2614.7,110.109 2318.5,83.6133 2021.8,64.1094 1661.9,40.4102 1301.9,16.6094 941.5,4.01172 682.398,-4.98828 422.598,3.71094 163.102,5.60938 113.301,6.01172 63.6016,12.3086 13.8008,15.1094 8.80078,15.4102 4.19922,15.8086 0,16.6094 V 1078.51 h 12048.4"
         style="fill:#9b7d3c;fill-opacity:1;fill-rule:nonzero;stroke:none"
         id="path14" /><path
         d="M 685.02,120.645 C 454.191,124.766 229.465,112.082 0,132.258 v 41.836 C 1842.23,101.523 3707.49,408.469 5533.46,458.223 7701.81,563.391 9874.82,375.176 12048.4,327.766 V 149.551 C 9885.45,420.723 7704.69,514.121 5534.71,428.281 3932.96,373.313 2303.96,156.367 685.02,120.645"
         style="fill:#f7f6e5;fill-opacity:1;fill-rule:nonzero;stroke:none"
         id="path16" /></g></g></svg>
